<svg xmlns="http://www.w3.org/2000/svg" xmlns:xlink="http://www.w3.org/1999/xlink" width="302" height="301" viewBox="0 0 302 301"><defs><style>.a{fill:#fff;stroke:#707070;}.b{fill:none;}.c{clip-path:url(#a);}.d{clip-path:url(#b);}.e{fill:#fbfbfb;}.f{font-size:5px;}.f,.i,.n{font-family:Geomanist-Book, Geomanist;}.g{letter-spacing:-0.049em;}.h,.w,.z{font-family:MyriadPro-Regular, Myriad Pro;}.i,.l{font-size:10px;}.j,.w{letter-spacing:0.01em;}.k{letter-spacing:-0.01em;}.l{font-family:Geomanist-Bold, Geomanist;font-weight:700;}.m{letter-spacing:0.029em;}.n,.z{fill:#5c5c5b;}.n{font-size:7px;}.o{letter-spacing:-0.004em;}.p{letter-spacing:-0.005em;}.q{letter-spacing:0.004em;}.r{letter-spacing:0.003em;}.s{letter-spacing:0.009em;}.t{letter-spacing:0.034em;}.u{letter-spacing:0.008em;}.v{letter-spacing:0.019em;}.x{letter-spacing:0.039em;}.y{letter-spacing:0.02em;}.z{font-size:6px;}.aa{letter-spacing:0.018em;}.ab{letter-spacing:0.017em;}.ac{letter-spacing:0.036em;}.ad{letter-spacing:-0.011em;}.ae{letter-spacing:-0.015em;}.af{letter-spacing:-0.019em;}.ag{letter-spacing:-0.003em;}.ah{letter-spacing:-0.002em;}.ai{letter-spacing:-0.013em;}.aj{letter-spacing:-0.007em;}.ak{letter-spacing:0.026em;}.al{letter-spacing:-0.008em;}.am{letter-spacing:-0.001em;}.an{letter-spacing:-0.006em;}.ao{fill:#818080;}.ap{opacity:0.25;}.aq{clip-path:url(#g);}.ar{clip-path:url(#h);}.as{clip-path:url(#i);}.at{clip-path:url(#j);}.au{clip-path:url(#k);}.av{clip-path:url(#l);}.aw{clip-path:url(#m);}.ax{clip-path:url(#n);}.ay{clip-path:url(#o);}.az{clip-path:url(#p);}.ba{clip-path:url(#q);}.bb{clip-path:url(#r);}.bc{clip-path:url(#s);}.bd{clip-path:url(#t);}.be{clip-path:url(#u);}.bf{clip-path:url(#v);}.bg{clip-path:url(#w);}.bh{clip-path:url(#x);}.bi{clip-path:url(#y);}.bj{clip-path:url(#z);}.bk{clip-path:url(#aa);}.bl{clip-path:url(#ab);}</style><clipPath id="a"><rect class="a" width="302" height="301" transform="translate(0 0.307)"/></clipPath><clipPath id="b"><rect class="b" width="577.309" height="408.198"/></clipPath><clipPath id="g"><rect class="b" width="13.926" height="7.559"/></clipPath><clipPath id="h"><rect class="b" width="13.909" height="8.367"/></clipPath><clipPath id="i"><rect class="b" width="14.216" height="8.441"/></clipPath><clipPath id="j"><rect class="b" width="14.093" height="8.356"/></clipPath><clipPath id="k"><rect class="b" width="13.643" height="8.441"/></clipPath><clipPath id="l"><rect class="b" width="14.196" height="8.372"/></clipPath><clipPath id="m"><rect class="b" width="14.031" height="8.396"/></clipPath><clipPath id="n"><rect class="b" width="13.274" height="9.109"/></clipPath><clipPath id="o"><rect class="b" width="14.007" height="8.396"/></clipPath><clipPath id="p"><rect class="b" width="12.704" height="8.396"/></clipPath><clipPath id="q"><rect class="b" width="13.274" height="8.396"/></clipPath><clipPath id="r"><rect class="b" width="15.192" height="7.515"/></clipPath><clipPath id="s"><rect class="b" width="14.049" height="8.327"/></clipPath><clipPath id="t"><rect class="b" width="14.282" height="7.559"/></clipPath><clipPath id="u"><rect class="b" width="14.282" height="8.371"/></clipPath><clipPath id="v"><rect class="b" width="13.643" height="8.368"/></clipPath><clipPath id="w"><rect class="b" width="13.955" height="7.47"/></clipPath><clipPath id="x"><rect class="b" width="13.954" height="8.326"/></clipPath><clipPath id="y"><rect class="b" width="13.954" height="8.245"/></clipPath><clipPath id="z"><rect class="b" width="13.909" height="7.551"/></clipPath><clipPath id="aa"><rect class="b" width="14.237" height="8.441"/></clipPath><clipPath id="ab"><rect class="b" width="14.105" height="8.359"/></clipPath></defs><g class="c" transform="translate(0 -0.307)"><g transform="translate(-253.034 -53.487)"><g transform="translate(0 0)"><g class="d"><g class="d"><g class="d"><rect class="e" width="230.016" height="408.198"/></g><text class="f" transform="translate(187.771 367.523)"><tspan x="0" y="0">6</tspan></text><g class="d"><text class="f" transform="translate(38.876 366.551)"><tspan x="0" y="0">ww</tspan><tspan class="g" y="0">w</tspan><tspan class="h" y="0">.</tspan><tspan y="0">swps</tspan><tspan class="h" y="0">.</tspan><tspan y="0">pl</tspan></text></g><text class="i" transform="translate(38.876 46.133)"><tspan x="0" y="0">P</tspan><tspan class="j" y="0">r</tspan><tspan y="0">zykład gene</tspan><tspan class="k" y="0">r</tspan><tspan y="0">owania znaku</tspan></text><text class="l" transform="translate(38.876 61.219)"><tspan x="0" y="0">Uniwers</tspan><tspan class="m" y="0">y</tspan><tspan y="0">tetu SWPS</tspan></text><text class="n" transform="translate(38.938 97.445)"><tspan x="0" y="0">O</tspan><tspan class="o" y="0"> </tspan><tspan y="0">ostatecznej</tspan><tspan class="p" y="0"> </tspan><tspan class="k" y="0">f</tspan><tspan y="0">ormie</tspan><tspan class="o" y="0"> </tspan><tspan y="0">znaku</tspan><tspan class="o" y="0"> </tspan><tspan y="0">iden</tspan><tspan class="m" y="0">ty</tspan><tspan y="0">fikacyjnego </tspan></text><text class="n" transform="translate(39.169 108.417)"><tspan class="q" x="0" y="0">de</tspan><tspan class="r" y="0">cyd</tspan><tspan class="q" y="0">uje</tspan><tspan class="s" y="0"> </tspan><tspan class="t" y="0">w</tspan><tspan class="q" y="0">ys</tspan><tspan class="r" y="0">t</tspan><tspan class="q" y="0">ąp</tspan><tspan class="r" y="0">i</tspan><tspan class="q" y="0">en</tspan><tspan class="r" y="0">i</tspan><tspan class="q" y="0">e</tspan><tspan class="u" y="0"> </tspan><tspan class="q" y="0">d</tspan><tspan class="r" y="0">a</tspan><tspan class="p" y="0">n</tspan><tspan class="r" y="0">yc</tspan><tspan class="q" y="0">h</tspan><tspan class="u" y="0"> </tspan><tspan class="r" y="0">lit</tspan><tspan class="q" y="0">er</tspan><tspan class="u" y="0"> </tspan><tspan class="r" y="0">w</tspan><tspan class="s" y="0"> </tspan><tspan class="q" y="0">n</tspan><tspan class="r" y="0">a</tspan><tspan class="q" y="0">z</tspan><tspan class="r" y="0">wi</tspan><tspan y="0">e </tspan></text><text class="n" transform="translate(39.245 119.389)"><tspan class="j" x="0" y="0">jedn</tspan><tspan class="s" y="0">o</tspan><tspan class="j" y="0">stki</tspan><tspan class="v" y="0"> </tspan><tspan class="j" y="0">tj</tspan><tspan class="w" y="0">.</tspan><tspan class="v" y="0"> </tspan><tspan class="j" y="0">p</tspan><tspan class="s" y="0">o</tspan><tspan class="j" y="0">j</tspan><tspan class="s" y="0">a</tspan><tspan class="j" y="0">wienie</tspan><tspan class="v" y="0"> </tspan><tspan class="j" y="0">się</tspan><tspan class="v" y="0"> </tspan><tspan class="j" y="0">danej</tspan><tspan class="v" y="0"> </tspan><tspan class="j" y="0">li</tspan><tspan class="s" y="0">t</tspan><tspan class="j" y="0">e</tspan><tspan class="x" y="0">r</tspan><tspan class="s" y="0">y</tspan><tspan class="y" y="0"> </tspan><tspan class="s" y="0">w</tspan><tspan class="y" y="0"> </tspan><tspan class="j" y="0">n</tspan><tspan y="0">a</tspan></text><text class="z" transform="translate(189.436 119.074)"><tspan x="0" y="0">-</tspan></text><text class="n" transform="translate(38.883 130.36)"><tspan class="aa" x="0" y="0">z</tspan><tspan class="ab" y="0">w</tspan><tspan class="aa" y="0">ie</tspan><tspan class="ac" y="0"> </tspan><tspan class="aa" y="0">determ</tspan><tspan class="ab" y="0">i</tspan><tspan class="aa" y="0">nu</tspan><tspan class="ab" y="0">j</tspan><tspan class="aa" y="0">e</tspan><tspan class="ac" y="0"> </tspan><tspan class="ad" y="0">k</tspan><tspan class="ab" y="0">o</tspan><tspan class="aa" y="0">n</tspan><tspan class="ab" y="0">i</tspan><tspan class="aa" y="0">eczn</tspan><tspan class="ab" y="0">o</tspan><tspan class="aa" y="0">ś</tspan><tspan class="ab" y="0">ć</tspan><tspan class="ac" y="0"> </tspan><tspan class="aa" y="0">zazn</tspan><tspan class="ab" y="0">a</tspan><tspan class="aa" y="0">c</tspan><tspan class="r" y="0">z</tspan><tspan class="aa" y="0">en</tspan><tspan class="ab" y="0">i</tspan><tspan y="0">a </tspan></text><text class="n" transform="translate(39.224 141.332)"><tspan x="0" y="0">tego fa</tspan><tspan class="v" y="0">k</tspan><tspan y="0">tu na generato</tspan><tspan class="j" y="0">r</tspan><tspan class="ae" y="0">z</tspan><tspan class="af" y="0">e</tspan><tspan class="h" y="0">.</tspan><tspan y="0"> </tspan></text><text class="n" transform="translate(38.94 163.275)"><tspan class="ag" x="0" y="0">W</tspan><tspan class="ah" y="0">iel</tspan><tspan class="ag" y="0">ok</tspan><tspan class="ai" y="0">r</tspan><tspan class="ag" y="0">ot</tspan><tspan class="ah" y="0">ne</tspan><tspan class="aj" y="0"> </tspan><tspan class="ak" y="0">w</tspan><tspan class="ag" y="0">y</tspan><tspan class="ah" y="0">s</tspan><tspan class="ag" y="0">tą</tspan><tspan class="ah" y="0">p</tspan><tspan class="ag" y="0">i</tspan><tspan class="ah" y="0">en</tspan><tspan class="ag" y="0">i</tspan><tspan class="ah" y="0">e</tspan><tspan class="al" y="0"> </tspan><tspan class="ah" y="0">d</tspan><tspan class="ag" y="0">a</tspan><tspan class="ah" y="0">ne</tspan><tspan class="ag" y="0">j</tspan><tspan class="al" y="0"> </tspan><tspan class="ah" y="0">l</tspan><tspan class="ag" y="0">it</tspan><tspan class="ah" y="0">e</tspan><tspan class="ak" y="0">r</tspan><tspan class="ag" y="0">y</tspan><tspan class="aj" y="0"> </tspan><tspan class="ag" y="0">w</tspan><tspan class="al" y="0"> </tspan><tspan class="ah" y="0">n</tspan><tspan class="ag" y="0">a</tspan><tspan class="ah" y="0">z</tspan><tspan class="ag" y="0">wi</tspan><tspan y="0">e </tspan></text><text class="n" transform="translate(39.184 174.247)"><tspan x="0" y="0">n</tspan><tspan class="am" y="0">a</tspan><tspan class="p" y="0"> </tspan><tspan y="0">gene</tspan><tspan class="am" y="0">r</tspan><tspan y="0">a</tspan><tspan class="am" y="0">t</tspan><tspan y="0">o</tspan><tspan class="s" y="0">r</tspan><tspan class="ae" y="0">z</tspan><tspan y="0">e</tspan><tspan class="p" y="0"> </tspan><tspan class="am" y="0">o</tspan><tspan y="0">dn</tspan><tspan class="am" y="0">oto</tspan><tspan class="m" y="0">w</tspan><tspan y="0">y</tspan><tspan class="am" y="0">wa</tspan><tspan y="0">ne</tspan><tspan class="p" y="0"> </tspan><tspan class="am" y="0">j</tspan><tspan y="0">es</tspan><tspan class="am" y="0">t</tspan><tspan class="p" y="0"> </tspan><tspan y="0">jeden</tspan><tspan class="an" y="0"> </tspan><tspan class="am" y="0">r</tspan><tspan y="0">az</tspan><tspan class="h" y="0">.</tspan><tspan y="0"> </tspan></text><rect width="30.129" height="0.778" transform="translate(0 43.153)"/><g class="d"><path d="M577.52,185.317l.008.085q2.9-.284,5.873-.286t5.986.295l.085.008,5.948-60.39-.085-.008q-6.044-.6-12-.591T571.579,125l-.085.009,5.949,60.4.085-.008-.008-.085.085-.008-5.932-60.231-.085.008.008.085q5.806-.566,11.742-.571t11.98.59l.009-.085-.085-.008-5.932,60.22.085.008.008-.085q-3.024-.3-6-.3t-5.89.287l.008.085.085-.008Z" transform="translate(-179.604 -39.105)"/><path class="ao" d="M587.523,124.679q-1.118,0-2.233.021a1,1,0,0,0-.48.854h0l1.377,59.107a.544.544,0,0,0,.151.376l.341-.006a.375.375,0,0,1-.321-.37h0l-1.377-59.109a.831.831,0,0,1,.8-.827l.082,0h0l.68-.015c.41-.009.878-.018,1.106-.018s.69.009,1.094.017l.668.015v0h.084a.833.833,0,0,1,.823.83l-1.377,59.109h0a.374.374,0,0,1-.335.371l.352.007a.539.539,0,0,0,.154-.378l1.377-59.106h0a1,1,0,0,0-.469-.848q-1.251-.026-2.5-.026m.063,60.516q-.459,0-.917.007a.469.469,0,0,0,.062,0l.918,0,.917,0h.045q-.513-.009-1.026-.009" transform="translate(-183.788 -39.183)"/><path d="M587.869,124.441c-.461,0-1.873.035-1.873.035l-.084,0v.008a1.01,1.01,0,0,0-.4.139q1.114-.021,2.233-.021,1.246,0,2.5.026a1,1,0,0,0-.438-.149v0l-.083,0s-1.387-.034-1.849-.034m-.97,60.515-.341.006a.542.542,0,0,0,.331.165q.458-.006.917-.007.512,0,1.026.009a.543.543,0,0,0,.346-.164l-.352-.007-.038,0s-.688,0-.918,0-.9,0-.917,0a.338.338,0,0,1-.053,0" transform="translate(-184.008 -39.108)"/><path d="M555.211,187.9l.025.082a60.787,60.787,0,0,1,11.633-2.3l.085-.008-5.948-60.39-.085.008a121.641,121.641,0,0,0-23.3,4.616l-.082.025,17.618,58.079.082-.025-.025-.082.082-.025-17.568-57.916-.082.025.025.082a121.556,121.556,0,0,1,23.271-4.609l-.008-.085-.085.008,5.931,60.221.085-.009-.008-.085a60.861,60.861,0,0,0-11.666,2.312l.025.082.082-.025Z" transform="translate(-168.932 -39.372)"/><path d="M534.2,194.56l.04.075A60.759,60.759,0,0,1,545.2,190.1l.082-.025-17.615-58.07-.082.025a121.682,121.682,0,0,0-21.956,9.073l-.075.04,28.611,53.526.075-.04-.04-.075.075-.04-28.53-53.376-.075.04.04.075a121.48,121.48,0,0,1,21.925-9.061l-.025-.082-.082.025,17.566,57.906.082-.025-.025-.082a60.936,60.936,0,0,0-10.992,4.543l.04.075.075-.04Z" transform="translate(-158.881 -41.487)"/><path d="M515.293,205.31l.054.066a60.746,60.746,0,0,1,9.866-6.581l.075-.04-28.605-53.517-.075.04a121.73,121.73,0,0,0-19.763,13.182l-.067.054,38.5,46.916.066-.054-.054-.066.066-.054-38.395-46.785-.066.055.054.066a121.526,121.526,0,0,1,19.736-13.164l-.04-.075-.075.04L525.1,198.76l.076-.04-.04-.075a60.869,60.869,0,0,0-9.894,6.6l.054.066.066-.054Z" transform="translate(-149.837 -45.644)"/><path d="M499.217,219.74l.066.054a60.7,60.7,0,0,1,8.393-8.38l.066-.054-38.5-46.908-.066.054a121.693,121.693,0,0,0-16.812,16.785l-.054.066,46.916,38.5.054-.066-.066-.054.054-.066-46.785-38.395-.054.066.067.054a121.54,121.54,0,0,1,16.788-16.761l-.054-.066-.066.054L507.554,211.4l.066-.054-.054-.067a60.887,60.887,0,0,0-8.416,8.4l.066.054.054-.066Z" transform="translate(-142.148 -51.682)"/><path d="M486.589,237.294l.075.04a60.7,60.7,0,0,1,6.6-9.856l.054-.067-46.908-38.5-.054.066a121.707,121.707,0,0,0-13.215,19.742l-.04.075,53.527,28.611.04-.075-.075-.04.04-.075-53.376-28.53-.04.075.075.04a121.551,121.551,0,0,1,13.2-19.714l-.066-.054-.054.066L493.14,227.49l.054-.066-.066-.054a60.851,60.851,0,0,0-6.615,9.883l.075.04.04-.075Z" transform="translate(-136.11 -59.371)"/><path d="M477.894,257.3l.082.025a60.707,60.707,0,0,1,4.547-10.953l.04-.075L429.045,217.69l-.04.075a121.633,121.633,0,0,0-9.109,21.941l-.025.082,58.08,17.618.025-.082-.082-.025.025-.082L420,239.649l-.025.082.082.025a121.562,121.562,0,0,1,9.1-21.91l-.075-.04-.04.075,53.366,28.525.04-.075-.075-.04a60.834,60.834,0,0,0-4.559,10.985l.082.025.025-.082Z" transform="translate(-131.953 -68.413)"/><path d="M473.467,278.986l.085.008a60.714,60.714,0,0,1,2.323-11.63l.025-.082-58.07-17.615-.025.082a121.684,121.684,0,0,0-4.653,23.3l-.009.085,60.4,5.949.008-.085-.085-.008.008-.085-60.23-5.932-.009.085.085.008a121.575,121.575,0,0,1,4.647-23.263l-.082-.025-.025.082,57.906,17.566.025-.082-.082-.025a60.893,60.893,0,0,0-2.329,11.663l.085.008.008-.085Z" transform="translate(-129.839 -78.463)"/><path d="M473.213,301.521l.085-.008q-.284-2.9-.286-5.874t.295-5.986l.008-.085-60.39-5.948-.008.085q-.6,6.044-.591,12t.572,11.759l.008.085,60.4-5.949-.008-.085-.085.008-.008-.085-60.231,5.932.008.085.085-.008q-.566-5.806-.571-11.742t.59-11.981l-.085-.008-.008.085,60.22,5.932.008-.085-.085-.009q-.3,3.024-.3,6t.287,5.89l.085-.008-.008-.085Z" transform="translate(-129.582 -89.133)"/><path d="M475.8,321.311l.082-.025a60.736,60.736,0,0,1-2.3-11.633l-.008-.085-60.39,5.948.008.085a121.65,121.65,0,0,0,4.616,23.3l.025.082L475.9,321.368l-.025-.082-.082.025-.025-.082L417.857,338.8l.025.082.082-.025a121.469,121.469,0,0,1-4.609-23.272l-.085.008.008.085,60.22-5.931-.008-.085-.085.008a60.848,60.848,0,0,0,2.312,11.666l.082-.025-.025-.082Z" transform="translate(-129.849 -97.288)"/><path d="M482.455,337.6l.075-.04A60.711,60.711,0,0,1,478,326.6l-.025-.082L419.9,344.131l.025.082A121.7,121.7,0,0,0,429,366.168l.04.075,53.526-28.611-.04-.075-.075.04-.04-.075-53.376,28.53.04.075.075-.04a121.479,121.479,0,0,1-9.061-21.924l-.082.025.025.082L477.943,326.7l-.025-.082-.082.025a60.885,60.885,0,0,0,4.543,10.992l.075-.04-.04-.075Z" transform="translate(-131.964 -102.614)"/><path d="M493.206,352.48l.066-.054a60.719,60.719,0,0,1-6.581-9.866l-.04-.075L433.133,371.09l.04.075a121.761,121.761,0,0,0,13.182,19.763l.054.066,46.916-38.5-.054-.066-.066.054-.054-.066-46.784,38.395.053.066.067-.054a121.515,121.515,0,0,1-13.164-19.736l-.075.04.04.075,53.367-28.525-.04-.075-.075.04a60.932,60.932,0,0,0,6.6,9.894l.066-.054-.054-.066Z" transform="translate(-136.121 -107.633)"/><path d="M507.636,365.385l.054-.065a60.733,60.733,0,0,1-8.38-8.393l-.054-.067-46.908,38.5.054.066a121.691,121.691,0,0,0,16.785,16.812l.066.053,38.5-46.916-.066-.053-.054.065-.066-.053-38.4,46.784.067.054.054-.067a121.423,121.423,0,0,1-16.761-16.788l-.066.055.054.066L499.3,357.048l-.054-.067-.066.055a60.883,60.883,0,0,0,8.4,8.416l.054-.067-.066-.053Z" transform="translate(-142.16 -112.151)"/><path d="M525.19,375.82l.04-.075a60.7,60.7,0,0,1-9.856-6.6l-.066-.054L476.812,416l.066.054a121.711,121.711,0,0,0,19.742,13.215l.075.04,28.61-53.527-.075-.04-.04.075-.075-.04-28.53,53.376.075.04.04-.075a121.486,121.486,0,0,1-19.715-13.2l-.054.067.066.054,38.388-46.776-.066-.054-.054.066a60.847,60.847,0,0,0,9.883,6.615l.04-.075-.075-.04Z" transform="translate(-149.848 -115.995)"/><path d="M545.2,383.38l.025-.082a60.714,60.714,0,0,1-10.953-4.547l-.075-.04-28.605,53.517.075.04a121.654,121.654,0,0,0,21.941,9.109l.082.025L545.3,383.324l-.082-.025-.025.082-.082-.025-17.568,57.915.082.025.025-.082a121.562,121.562,0,0,1-21.91-9.1l-.04.075.075.04L534.3,378.868l-.075-.04-.04.075a60.813,60.813,0,0,0,10.984,4.559l.025-.082-.082-.025Z" transform="translate(-158.891 -119.018)"/><path d="M566.881,387.776l.008-.084a60.822,60.822,0,0,1-11.63-2.323l-.082-.025-17.615,58.07.082.025a121.68,121.68,0,0,0,23.3,4.653l.085.009,5.949-60.4-.085-.008-.008.084-.085-.008L560.864,448l.085.008.008-.084a121.572,121.572,0,0,1-23.263-4.647l-.025.082.082.025,17.566-57.906-.082-.025-.025.082a60.945,60.945,0,0,0,11.663,2.33l.008-.086-.085-.008Z" transform="translate(-168.94 -121.102)"/><path d="M589.416,388.841l-.008-.085q-2.9.284-5.873.286t-5.986-.295l-.085-.009-5.948,60.391.085.008q6.044.6,12,.591t11.759-.572l.085-.008-5.949-60.4-.085.008.008.085-.085.008,5.932,60.231.085-.009-.008-.084q-5.806.566-11.742.571t-11.98-.59l-.009.085.085.008,5.932-60.22-.085-.008-.008.085q3.024.3,6,.3t5.89-.287l-.008-.085-.085.008Z" transform="translate(-179.61 -122.169)"/><path d="M609.207,385.46l-.025-.082a60.737,60.737,0,0,1-11.633,2.3l-.085.008,5.948,60.39.085-.008a121.64,121.64,0,0,0,23.3-4.616l.082-.025-17.618-58.079-.082.025.025.082-.082.025L626.694,443.4l.082-.025-.025-.082A121.45,121.45,0,0,1,603.48,447.9l.008.085.085-.008-5.931-60.221-.085.009.008.085a60.848,60.848,0,0,0,11.666-2.312l-.025-.082-.082.025Z" transform="translate(-187.765 -121.105)"/><path d="M625.493,378.831l-.04-.075a60.732,60.732,0,0,1-10.961,4.53l-.082.025,17.615,58.07.082-.025a121.686,121.686,0,0,0,21.956-9.073l.075-.04-28.611-53.526-.075.04.04.075-.075.04,28.53,53.376.075-.04-.04-.075a121.532,121.532,0,0,1-21.925,9.061l.025.082.082-.025L614.6,383.343l-.082.025.025.082a60.935,60.935,0,0,0,10.992-4.543l-.04-.075-.075.04Z" transform="translate(-193.091 -119.019)"/><path d="M640.375,369.214l-.054-.066a60.745,60.745,0,0,1-9.866,6.581l-.075.04,28.605,53.517.076-.04a121.657,121.657,0,0,0,19.763-13.182l.067-.054-38.5-46.916-.066.054.054.066-.066.054L678.7,416.053l.067-.055-.054-.066A121.576,121.576,0,0,1,658.98,429.1l.04.075.075-.04-28.525-53.367-.076.04.04.075a60.869,60.869,0,0,0,9.894-6.6l-.054-.066-.066.054Z" transform="translate(-198.11 -115.995)"/><path d="M653.281,356.977l-.066-.054a60.7,60.7,0,0,1-8.393,8.38l-.066.054,38.5,46.908.066-.054a121.69,121.69,0,0,0,16.812-16.785l.054-.066-46.916-38.5-.054.066.066.054-.054.066,46.785,38.4.054-.066-.066-.054a121.548,121.548,0,0,1-16.789,16.761l.054.066.066-.054-38.389-46.776-.066.054.054.066a60.883,60.883,0,0,0,8.416-8.4l-.066-.054-.054.066Z" transform="translate(-202.628 -112.15)"/><path d="M663.715,342.591l-.075-.04a60.7,60.7,0,0,1-6.6,9.856l-.054.066,46.908,38.5.054-.066a121.706,121.706,0,0,0,13.215-19.742l.04-.075-53.527-28.61-.04.075.075.04-.04.075L717.05,371.2l.04-.075-.075-.04a121.525,121.525,0,0,1-13.2,19.715l.066.054.054-.067L657.163,352.4l-.054.066.066.054a60.874,60.874,0,0,0,6.615-9.883l-.075-.04-.04.075Z" transform="translate(-206.472 -107.63)"/><path d="M671.275,326.608l-.082-.025a60.711,60.711,0,0,1-4.547,10.953l-.04.075,53.518,28.605.04-.075a121.649,121.649,0,0,0,9.109-21.941l.026-.082L671.218,326.5l-.025.082.082.025-.025.082,57.916,17.568.025-.082-.082-.025a121.514,121.514,0,0,1-9.1,21.91l.075.04.04-.075L666.762,337.5l-.04.075.075.04a60.856,60.856,0,0,0,4.559-10.984l-.082-.025-.025.082Z" transform="translate(-209.494 -102.61)"/><path d="M675.672,309.644l-.085-.008a60.729,60.729,0,0,1-2.323,11.63l-.025.082,58.07,17.615.025-.082a121.756,121.756,0,0,0,4.654-23.3L736,315.5l-60.4-5.949-.008.085.085.008-.008.085,60.23,5.932.009-.085-.085-.008a121.575,121.575,0,0,1-4.647,23.263l.082.025.025-.082-57.906-17.566-.025.082.082.025a60.9,60.9,0,0,0,2.329-11.663l-.085-.008-.008.085Z" transform="translate(-211.579 -97.283)"/><path d="M676.736,289.624l-.085.008q.284,2.9.286,5.874t-.295,5.986l-.008.085,60.39,5.948.008-.085q.6-6.044.591-12t-.572-11.759l-.008-.085-60.4,5.949.008.085.085-.008.008.085,60.231-5.932-.008-.085-.085.008q.566,5.806.571,11.742t-.59,11.981l.085.008.008-.085-60.22-5.932-.008.085.085.009q.3-3.024.3-6t-.287-5.89l-.085.008.008.085Z" transform="translate(-212.646 -89.126)"/><path d="M673.355,267.316l-.082.025a60.789,60.789,0,0,1,2.3,11.633l.008.085,60.39-5.948-.008-.085a121.65,121.65,0,0,0-4.616-23.3l-.025-.082-58.079,17.618.025.082.082-.025.025.082L731.3,249.83l-.025-.082-.082.024a121.524,121.524,0,0,1,4.609,23.272l.085-.008-.008-.085-60.22,5.931.008.085.085-.008a60.85,60.85,0,0,0-2.312-11.666l-.082.025.025.082Z" transform="translate(-211.582 -78.455)"/><path d="M666.727,246.3l-.076.04a60.706,60.706,0,0,1,4.53,10.96l.025.082,58.07-17.615-.025-.082a121.679,121.679,0,0,0-9.073-21.956l-.04-.075L666.612,246.27l.04.075.076-.04.04.075,53.375-28.53-.04-.075-.075.04a121.534,121.534,0,0,1,9.061,21.925l.082-.025-.025-.082L671.239,257.2l.025.082.082-.025a60.938,60.938,0,0,0-4.543-10.992l-.075.04.04.075Z" transform="translate(-209.496 -68.404)"/><path d="M657.109,227.4l-.066.054a60.723,60.723,0,0,1,6.581,9.866l.04.075,53.517-28.605-.04-.075a121.719,121.719,0,0,0-13.182-19.763l-.054-.067-46.916,38.5.054.066.066-.054.054.066,46.785-38.395-.054-.066-.067.054a121.521,121.521,0,0,1,13.164,19.735l.075-.04-.04-.075L663.659,237.2l.041.075.075-.04a60.9,60.9,0,0,0-6.6-9.894l-.066.054.054.066Z" transform="translate(-206.472 -59.36)"/><path d="M644.872,211.321l-.054.066a60.692,60.692,0,0,1,8.38,8.393l.054.066,46.908-38.5-.054-.067a121.693,121.693,0,0,0-16.785-16.812l-.066-.054-38.5,46.916.066.054.054-.066.066.054,38.4-46.785-.067-.054-.054.066a121.5,121.5,0,0,1,16.761,16.788l.066-.054-.054-.066-46.776,38.389.054.066.066-.054a60.883,60.883,0,0,0-8.4-8.416l-.054.066.066.054Z" transform="translate(-202.626 -51.671)"/><path d="M630.486,198.693l-.04.075a60.7,60.7,0,0,1,9.856,6.6l.066.054,38.5-46.908-.066-.054a121.705,121.705,0,0,0-19.742-13.215l-.075-.04L630.37,198.728l.075.04.04-.075.075.04,28.53-53.376-.075-.04-.04.075a121.491,121.491,0,0,1,19.715,13.2l.054-.067-.066-.054L640.29,205.244l.066.054.054-.066a60.849,60.849,0,0,0-9.883-6.615l-.041.075.075.04Z" transform="translate(-198.107 -45.632)"/><path d="M614.5,190l-.025.082a60.713,60.713,0,0,1,10.953,4.547l.075.04,28.605-53.518-.075-.04A121.656,121.656,0,0,0,632.1,132l-.082-.025L614.4,190.055l.082.025L614.5,190l.082.025,17.568-57.916-.082-.025-.025.082a121.565,121.565,0,0,1,21.91,9.1l.04-.075-.075-.04L625.4,194.511l.075.04.04-.075a60.911,60.911,0,0,0-10.984-4.559L614.5,190l.082.025Z" transform="translate(-193.087 -41.476)"/><path d="M597.54,185.572l-.008.085a60.724,60.724,0,0,1,11.63,2.323l.082.025,17.615-58.07-.082-.025a121.692,121.692,0,0,0-23.3-4.653l-.085-.009-5.949,60.4.085.008.008-.085.085.008,5.932-60.23-.085-.009-.008.085a121.572,121.572,0,0,1,23.263,4.647l.025-.082-.082-.025-17.566,57.906.082.025.025-.082a60.892,60.892,0,0,0-11.663-2.329l-.008.085.085.008Z" transform="translate(-187.76 -39.362)"/><path class="ao" d="M555.688,127.425q-.866.154-1.727.32l.451-.081.656-.115v0l.085-.016a.843.843,0,0,1,.154-.014.832.832,0,0,1,.815.669l10.18,58.24h0a.39.39,0,0,1,.007.074.373.373,0,0,1-.3.365l-.9.176c-.226.045-.9.182-.9.182a.386.386,0,0,1-.073.008.374.374,0,0,1-.366-.3l-12.882-57.7a.83.83,0,0,1,.623-.969l.082-.02v0l.662-.147.557-.122q-.906.183-1.806.379a1,1,0,0,0-.286.913h0l12.882,57.7a.542.542,0,0,0,.236.347q1.262-.278,2.545-.5a.544.544,0,0,0,.1-.309.56.56,0,0,0-.01-.106l-10.18-58.24h0a1,1,0,0,0-.6-.732m-1.758.152c-.252.045-.484.088-.626.117-.123.024-.312.064-.524.11q.574-.116,1.15-.227" transform="translate(-173.069 -40.046)"/><path d="M555.448,127.315h0c-.032,0-.065,0-.1,0v0l-.085.015s-.644.111-1.194.211q-.576.111-1.15.227c-.573.124-1.307.289-1.308.289l-.084.019,0,.008a1,1,0,0,0-.383.232q.9-.2,1.806-.38c.213-.046.4-.086.524-.11.141-.028.373-.071.625-.116q.862-.166,1.727-.32a1,1,0,0,0-.38-.075m11.077,59.464q-1.283.225-2.545.5a.54.54,0,0,0,.3.089.516.516,0,0,0,.107-.011h0l.365-.074.534-.108.534-.1.366-.071h0a.543.543,0,0,0,.341-.224" transform="translate(-173.209 -40.011)"/><path class="ao" d="M522.571,136.817q-2.211.863-4.372,1.8a1,1,0,0,0-.117.972h0l23.891,54.081a.542.542,0,0,0,.283.289l.313-.136a.4.4,0,0,1-.093.012.375.375,0,0,1-.346-.23h0L518.24,139.527a.829.829,0,0,1,.422-1.07l.076-.036h0l.621-.274c.376-.165.8-.352,1.015-.44s.641-.256,1.018-.4l.63-.245h0l.071-.028a.831.831,0,0,1,1.077.453l21.347,55.134h0a.375.375,0,0,1-.169.472l.33-.129a.556.556,0,0,0,.038-.2.538.538,0,0,0-.042-.207L523.33,137.422h0a1,1,0,0,0-.758-.6m21.849,56.433q-.905.357-1.793.741a.478.478,0,0,0,.058-.021h0l.344-.144.5-.211.5-.206.346-.141.039-.018" transform="translate(-162.794 -42.998)"/><path d="M522.491,136.8h0a.987.987,0,0,0-.3.047v0l-.07.027s-1.3.5-1.722.675l.033.079-.033-.079c-.427.177-1.717.75-1.718.75l-.078.034,0,.008a1,1,0,0,0-.316.281q2.159-.941,4.371-1.8a.989.989,0,0,0-.169-.014m22.277,56.163-.329.129-.034.016h0s-.637.26-.85.348-.847.355-.847.355a.467.467,0,0,1-.049.016l-.313.136a.546.546,0,0,0,.22.046.537.537,0,0,0,.15-.021q.888-.384,1.793-.741a.54.54,0,0,0,.259-.285" transform="translate(-162.883 -42.991)"/><path class="ao" d="M492.038,152.514h-.027q-1,.64-1.985,1.3l0,.006c.19-.127.579-.376.919-.594l.445-.283.119-.075v0l.071-.046a.832.832,0,0,1,1.145.232l31.694,49.912h0a.367.367,0,0,1,.063.207.373.373,0,0,1-.136.289l.3-.191a.522.522,0,0,0,.009-.1.542.542,0,0,0-.091-.3L492.873,152.96h0a1,1,0,0,0-.834-.445m-2.013,1.3q-.983.655-1.95,1.328a1.011,1.011,0,0,0-.093.422,1,1,0,0,0,.169.554h0L522.135,204.5a.546.546,0,0,0,.333.228l.28-.195a.373.373,0,0,1-.472-.129h0l-33.984-48.382a.83.83,0,0,1,.206-1.132l.069-.05h0l.115-.081c.343-.241,1.065-.747,1.349-.937ZM524.45,203.6q-.818.527-1.614,1.077c.018-.01.036-.02.053-.032l.309-.209.452-.3c.095-.064.286-.191.454-.3l.311-.206h0l.034-.025" transform="translate(-153.358 -47.931)"/><path d="M492.054,152.514a1,1,0,0,0-.446.119l0,0-.071.045s-1.173.743-1.556,1-1.539,1.07-1.539,1.07l-.071.05,0,.007a1,1,0,0,0-.254.337q.967-.673,1.95-1.328l-.043-.065.043.065q.984-.656,1.984-1.3m32.638,50.756-.3.191a.232.232,0,0,1-.03.022s-.574.379-.765.507-.75.505-.761.513a.439.439,0,0,1-.046.026l-.28.195a.565.565,0,0,0,.118.013h0a.546.546,0,0,0,.249-.06q.8-.549,1.614-1.077a.545.545,0,0,0,.2-.33" transform="translate(-153.401 -47.931)"/><path class="ao" d="M465.381,173.884h0a.984.984,0,0,0-.224.025q-1.713,1.643-3.348,3.34a1.017,1.017,0,0,0-.028.237,1,1,0,0,0,.293.706l42.769,40.821a.545.545,0,0,0,.372.16l.237-.246a.372.372,0,0,1-.488-.034h0l-42.77-40.822a.824.824,0,0,1-.241-.584.833.833,0,0,1,.222-.566l.058-.062h0l.1-.1c.289-.3.9-.94,1.14-1.182.161-.161.494-.482.785-.762l.381-.364.1-.1h0l.057-.056a.832.832,0,0,1,1.169,0l40.821,42.769h0a.372.372,0,0,1,.025.5l.256-.245a.544.544,0,0,0-.16-.376L466.09,174.178h0a1,1,0,0,0-.708-.293m41.559,43.8q-.7.677-1.374,1.371a.533.533,0,0,0,.046-.042h0l.262-.265c.141-.143.3-.306.384-.387l.386-.384.265-.262h0l.029-.032" transform="translate(-145.124 -54.647)"/><path d="M465.172,173.92a1.007,1.007,0,0,0-.419.207l0,0-.057.054s-1.005.957-1.332,1.283-1.3,1.35-1.3,1.35l-.06.062.006.005a1,1,0,0,0-.184.38q1.634-1.7,3.348-3.34m41.913,43.414-.255.246-.025.027c-.009.009-.491.485-.652.647s-.636.641-.647.651a.3.3,0,0,1-.039.034l-.237.245h.013a.541.541,0,0,0,.338-.118q.674-.694,1.374-1.371a.542.542,0,0,0,.13-.353v-.009" transform="translate(-145.138 -54.658)"/><path class="ao" d="M443.457,200.085a1,1,0,0,0-.411.087q-1.359,1.946-2.631,3.929c0,.014,0,.027,0,.042a1,1,0,0,0,.444.832h0l49.912,31.694a.538.538,0,0,0,.3.091h0a.546.546,0,0,0,.095-.008c.061-.1.122-.191.184-.287a.374.374,0,0,1-.279.124.369.369,0,0,1-.207-.063h0l-49.912-31.694a.826.826,0,0,1-.366-.688.836.836,0,0,1,.123-.436l.045-.073h0l.075-.119c.224-.353.7-1.1.887-1.382.127-.189.39-.568.622-.9l.3-.432.083-.118h0l.046-.067a.832.832,0,0,1,.687-.361.823.823,0,0,1,.461.14l48.38,33.982h0a.371.371,0,0,1,.166.311.36.36,0,0,1-.043.175c.067-.1.134-.193.2-.29a.541.541,0,0,0-.229-.337l-48.381-33.983h0a.994.994,0,0,0-.555-.169m49.11,34.869q-.554.8-1.08,1.613a.456.456,0,0,0,.036-.049h0l.205-.311.3-.454c.063-.095.191-.285.3-.451l.208-.309h0l.023-.038" transform="translate(-138.409 -62.881)"/><path d="M443.046,200.212a1,1,0,0,0-.37.284h0l-.046.064s-.8,1.135-1.055,1.519-1.012,1.577-1.012,1.577l-.047.074.007,0a1.006,1.006,0,0,0-.106.408q1.273-1.983,2.632-3.929m49.577,34.4-.2.29a.3.3,0,0,1-.019.032h0s-.385.571-.513.762-.507.765-.507.765h0a.39.39,0,0,1-.032.041l-.184.287a.544.544,0,0,0,.322-.184q.525-.813,1.079-1.613a.541.541,0,0,0,.057-.38" transform="translate(-138.409 -62.921)"/><path class="ao" d="M427.108,230.109h0a1.007,1.007,0,0,0-.581.185q-.954,2.174-1.814,4.367a1,1,0,0,0,.6.77h0l55.137,21.348a.539.539,0,0,0,.206.04h0a.534.534,0,0,0,.2-.037l.124-.316a.375.375,0,0,1-.321.182.36.36,0,0,1-.143-.029h0l-55.136-21.348a.83.83,0,0,1-.457-1.055l.028-.076h0l.247-.635c.149-.383.32-.818.407-1.029s.272-.634.434-1l.267-.606h0l.036-.083a.831.831,0,0,1,1.082-.442l54.081,23.892h0a.372.372,0,0,1,.215.451c.047-.108.094-.215.141-.322a.544.544,0,0,0-.289-.286l-54.082-23.892h0a.989.989,0,0,0-.382-.077m54.774,24.636q-.389.895-.746,1.8a.494.494,0,0,0,.028-.057h0l.141-.345c.076-.186.163-.4.207-.5l.21-.5.145-.344c.006-.014.011-.029.016-.043" transform="translate(-133.475 -72.316)"/><path d="M426.521,230.379a1,1,0,0,0-.3.342l0,0-.036.082s-.563,1.269-.739,1.7-.685,1.744-.685,1.745l-.03.077.007,0a1.023,1.023,0,0,0-.037.271.961.961,0,0,0,.012.154q.861-2.193,1.814-4.367m55.336,24.069c-.047.108-.095.215-.141.322a.388.388,0,0,1-.013.037s-.267.634-.355.847-.348.85-.348.85h0a.3.3,0,0,1-.025.049l-.124.316a.541.541,0,0,0,.278-.242q.358-.9.746-1.8a.53.53,0,0,0,.026-.165.546.546,0,0,0-.045-.217" transform="translate(-133.469 -72.401)"/><path class="ao" d="M416.978,262.8a1,1,0,0,0-.727.315q-.511,2.317-.928,4.635a1,1,0,0,0,.744.638h0l58.242,10.182a.549.549,0,0,0,.4-.075c.02-.11.04-.222.06-.333a.374.374,0,0,1-.351.247.332.332,0,0,1-.073-.007h0L416.1,268.224a.829.829,0,0,1-.666-.814.857.857,0,0,1,.01-.132l.014-.083h0c.023-.128.067-.384.117-.669.072-.4.154-.865.2-1.088s.143-.675.23-1.07c.062-.281.118-.534.145-.656h0l.017-.08a.833.833,0,0,1,.812-.661.843.843,0,0,1,.164.017l57.7,12.881h0a.375.375,0,0,1,.3.366c0,.01,0,.022,0,.034.025-.115.049-.229.075-.343a.541.541,0,0,0-.34-.225l-57.7-12.881h0a1.015,1.015,0,0,0-.2-.021m58.335,13.5q-.207.955-.381,1.91a.642.642,0,0,0,.016-.062h0s.032-.169.071-.366.082-.422.1-.535.068-.337.108-.534.074-.366.075-.366h0c0-.015,0-.032.007-.047" transform="translate(-130.524 -82.591)"/><path d="M416.22,263.262a1.006,1.006,0,0,0-.232.4h0l-.018.078s-.3,1.354-.394,1.807-.331,1.844-.331,1.845l-.014.084h.008c0,.025,0,.049,0,.074a1,1,0,0,0,.061.344q.417-2.318.927-4.636m58.969,12.811c-.025.115-.051.229-.075.344a.391.391,0,0,1-.005.039h0s-.138.675-.182.9-.176.9-.176.9h0a.393.393,0,0,1-.015.053c-.02.112-.04.223-.06.334a.544.544,0,0,0,.226-.291q.175-.955.382-1.91c0-.02,0-.04,0-.06a.544.544,0,0,0-.1-.309" transform="translate(-130.494 -82.735)"/><path class="ao" d="M413.451,296.912h0a1,1,0,0,0-.849.47q-.025,1.186-.026,2.369h0v.128q0,1.116.021,2.229a1,1,0,0,0,.854.481h0l59.109-1.377a.545.545,0,0,0,.374-.15c0-.113,0-.226-.006-.339a.374.374,0,0,1-.37.318h0l-59.109,1.377a.831.831,0,0,1-.827-.8l0-.082h0c0-.128-.01-.389-.016-.68-.008-.411-.017-.878-.017-1.106s.008-.69.017-1.094c.006-.285.012-.541.015-.667h0v-.084a.833.833,0,0,1,.83-.823l59.109,1.377h0a.375.375,0,0,1,.372.333c0-.117,0-.234.007-.35a.545.545,0,0,0-.376-.153Zm59.649,1.873q-.008.516-.009,1.031,0,.461.007.92a.522.522,0,0,0,0-.066s0-.689,0-.918,0-.917,0-.918c0-.017,0-.033,0-.049" transform="translate(-129.66 -93.311)"/><path d="M412.526,297.6a1,1,0,0,0-.148.437h0v.083s-.034,1.388-.034,1.849h.162q0-1.183.025-2.369m60.335,1.059c0,.117,0,.234-.007.35a.274.274,0,0,1,0,.041s0,.688,0,.918,0,.918,0,.918a.361.361,0,0,1,0,.055c0,.113,0,.226.006.339a.547.547,0,0,0,.165-.328q-.007-.459-.007-.92,0-.514.009-1.031a.545.545,0,0,0-.165-.343m-60.36,1.31h-.162c0,.461.034,1.873.034,1.874l0,.083h.008a1.006,1.006,0,0,0,.139.4q-.021-1.113-.021-2.23v-.128" transform="translate(-129.586 -93.526)"/><path class="ao" d="M474.415,316.29a.546.546,0,0,0-.1.01l-58.242,10.181h0a1,1,0,0,0-.741.627q.415,2.335.917,4.636a1,1,0,0,0,.932.306h0l57.7-12.881a.54.54,0,0,0,.339-.22l-.072-.33v.016a.373.373,0,0,1-.3.366h0l-57.7,12.881a.826.826,0,0,1-.163.016h0a.831.831,0,0,1-.806-.639l-.02-.082h0c-.029-.126-.085-.38-.147-.662-.088-.4-.189-.859-.233-1.081s-.126-.678-.2-1.077c-.049-.278-.093-.529-.115-.655h0l-.016-.085a.845.845,0,0,1-.014-.154.832.832,0,0,1,.668-.815l58.24-10.181h0a.384.384,0,0,1,.073-.008.374.374,0,0,1,.355.259c-.021-.114-.041-.229-.061-.344a.545.545,0,0,0-.293-.086m.521.39q.175.964.379,1.915a.558.558,0,0,0-.009-.067h0s-.035-.169-.075-.365-.086-.422-.108-.534l-.1-.534c-.038-.2-.071-.365-.071-.366h0a.409.409,0,0,0-.012-.048" transform="translate(-130.525 -99.401)"/><path d="M474.678,316.417c.02.115.04.229.061.344a.269.269,0,0,1,.011.041c0,.008.131.677.175.9s.182.9.182.9a.316.316,0,0,1,.007.056l.072.33a.545.545,0,0,0,.1-.313c0-.014,0-.027,0-.04q-.2-.952-.379-1.916a.543.543,0,0,0-.228-.3M415.3,327.149a1,1,0,0,0-.066.356.967.967,0,0,0,.005.1h0l.015.084s.237,1.367.327,1.821l.084-.017-.084.017c.09.453.4,1.83.4,1.831l.018.084.008,0a1,1,0,0,0,.213.363q-.5-2.3-.917-4.636" transform="translate(-130.494 -99.44)"/><path class="ao" d="M480.661,333.044h0a.551.551,0,0,0-.207.04l-55.136,21.348a1,1,0,0,0-.6.76q.431,1.106.883,2.2l.008,0c-.088-.211-.256-.64-.4-1.017l-.243-.628h0l-.029-.073a.83.83,0,0,1,.453-1.078l55.134-21.347h0a.374.374,0,0,1,.468.163l-.127-.324a.542.542,0,0,0-.2-.038m.481.289q.36.912.747,1.808a.572.572,0,0,0-.022-.065h0l-.144-.344c-.077-.185-.166-.4-.21-.5s-.131-.318-.207-.5-.141-.345-.141-.346h0a.371.371,0,0,0-.022-.047m.585,1.864a.38.38,0,0,1,.01.088.373.373,0,0,1-.23.345h0l-54.083,23.892a.821.821,0,0,1-.315.062.832.832,0,0,1-.755-.485l-.036-.079h0l-.273-.618c-.165-.376-.352-.805-.439-1.016l-.008,0q.451,1.091.921,2.17a1,1,0,0,0,.592.194.989.989,0,0,0,.382-.076h0l54.081-23.892a.542.542,0,0,0,.289-.282q-.068-.154-.134-.309" transform="translate(-133.475 -104.666)"/><path d="M480.853,333.1q.063.163.127.324a.358.358,0,0,1,.019.04h0c0,.008.261.638.348.85s.355.847.355.847h0a.329.329,0,0,1,.018.056c.045.1.089.206.134.309a.556.556,0,0,0,.047-.221.543.543,0,0,0-.019-.143q-.387-.895-.747-1.808a.545.545,0,0,0-.282-.252M424.706,355.21a.958.958,0,0,0-.014.167,1,1,0,0,0,.046.3h0l.027.072s.5,1.3.676,1.722l.079-.033.071-.03q-.452-1.092-.883-2.2m.883,2.2-.071.03-.079.033c.177.427.749,1.718.749,1.718l.036.081.008,0a1,1,0,0,0,.278.313q-.47-1.079-.921-2.17" transform="translate(-133.468 -104.683)"/><path class="ao" d="M491.069,348.538h0a.541.541,0,0,0-.3.091l-49.912,31.694h0a1,1,0,0,0-.445.834c0,.01,0,.02,0,.029q.639,1,1.294,1.983l.008,0-.008,0q.655.982,1.327,1.949a1.009,1.009,0,0,0,.424.094,1,1,0,0,0,.554-.168h0l48.382-33.984a.54.54,0,0,0,.227-.331c-.064-.092-.128-.183-.191-.276a.375.375,0,0,1-.132.466h0L443.913,384.9a.818.818,0,0,1-.457.138.833.833,0,0,1-.675-.344l-.049-.067h0l-.082-.118c-.241-.342-.747-1.064-.937-1.349-.127-.189-.376-.578-.594-.919l-.283-.444-.077-.121h0l-.045-.068a.831.831,0,0,1,.234-1.145l49.91-31.693h0a.373.373,0,0,1,.49.067l-.186-.291a.564.564,0,0,0-.1-.009m.42.2q.533.827,1.088,1.631a.5.5,0,0,0-.036-.061h0l-.209-.309-.3-.452-.3-.454-.206-.311h0c-.01-.015-.021-.029-.032-.043" transform="translate(-138.408 -109.535)"/><path d="M491.165,348.55c.062.1.124.195.186.292a.3.3,0,0,1,.027.036s.379.574.507.765.5.75.513.761a.431.431,0,0,1,.029.052l.191.275a.539.539,0,0,0-.043-.361q-.555-.8-1.088-1.631a.547.547,0,0,0-.324-.191M440.41,381.191a1.011,1.011,0,0,0,.121.447l0,0,.043.068s.743,1.172,1,1.556l.071-.047.064-.043q-.655-.983-1.295-1.983m1.295,1.983-.064.043-.071.047c.257.384,1.07,1.539,1.07,1.539l.049.069.006,0a1,1,0,0,0,.336.254q-.672-.966-1.326-1.948" transform="translate(-138.408 -109.539)"/><path class="ao" d="M505.216,362.177a.545.545,0,0,0-.374.159l-42.768,40.822h0a1,1,0,0,0-.268.934q.822.856,1.657,1.692l.006-.006-.006.006q.833.835,1.681,1.652a1,1,0,0,0,.946-.263h0l40.822-42.77a.544.544,0,0,0,.158-.369l-.24-.232a.373.373,0,0,1-.04.482h0l-40.821,42.768a.826.826,0,0,1-.586.242.835.835,0,0,1-.566-.221l-.062-.058h0l-.1-.1c-.3-.289-.94-.9-1.182-1.14-.161-.161-.482-.494-.762-.786l-.364-.381-.1-.1h0l-.056-.058a.832.832,0,0,1,.007-1.169l42.768-40.821h0a.373.373,0,0,1,.492-.032l-.239-.248m.354.121q.685.709,1.388,1.39a.59.59,0,0,0-.048-.054l-.265-.263-.386-.383-.384-.387-.262-.265h0a.557.557,0,0,0-.042-.038" transform="translate(-145.124 -113.821)"/><path d="M505.24,362.177h-.011l.239.248c.012.01.025.021.036.032h0s.484.49.647.652l.652.647a.407.407,0,0,1,.039.046l.241.232v-.014a.544.544,0,0,0-.112-.331q-.7-.681-1.388-1.39a.541.541,0,0,0-.342-.121m-43.422,41.915a1,1,0,0,0,.206.416l0,0,.055.057s.957,1.005,1.283,1.332l.06-.06.054-.054q-.835-.836-1.656-1.692m1.656,1.692-.054.054-.06.06c.326.326,1.349,1.3,1.349,1.3l.063.06.005-.006a1,1,0,0,0,.377.183q-.847-.817-1.681-1.652" transform="translate(-145.136 -113.821)"/><path class="ao" d="M522.468,373.454a.547.547,0,0,0-.335.229L488.15,422.064h0a1,1,0,0,0-.169.555,1.014,1.014,0,0,0,.089.413q.973.679,1.954,1.336l.005-.008-.005.008q.981.656,1.971,1.292h.045a1,1,0,0,0,.832-.444h0l31.694-49.912a.542.542,0,0,0,.091-.3.513.513,0,0,0-.008-.092l-.28-.18a.378.378,0,0,1,.117.272.373.373,0,0,1-.063.207h0l-31.693,49.911a.832.832,0,0,1-1.125.245l-.073-.045h0l-.119-.075c-.353-.224-1.1-.7-1.381-.888-.19-.126-.569-.39-.9-.621l-.432-.3-.123-.087h0l-.061-.043a.831.831,0,0,1-.362-.687.821.821,0,0,1,.139-.459l33.983-48.382h0a.374.374,0,0,1,.311-.167.388.388,0,0,1,.164.038l-.282-.2m.37.049q.812.563,1.635,1.094a.542.542,0,0,0-.058-.045h0l-.311-.205-.454-.3-.452-.3-.309-.208h0a.536.536,0,0,0-.05-.03" transform="translate(-153.358 -117.366)"/><path d="M522.627,373.436h0a.563.563,0,0,0-.117.012l.281.2a.335.335,0,0,1,.043.025l.761.513.766.507h0a.3.3,0,0,1,.049.039l.28.18a.541.541,0,0,0-.176-.315q-.824-.533-1.635-1.1a.541.541,0,0,0-.252-.062M488.11,423.028a1.006,1.006,0,0,0,.287.37v0l.06.043s1.134.8,1.518,1.055l.047-.071.043-.063q-.981-.657-1.954-1.336m1.954,1.336-.043.063-.047.071c.384.256,1.577,1.012,1.578,1.012l.073.047,0-.007a1.006,1.006,0,0,0,.4.1q-.99-.636-1.97-1.292" transform="translate(-153.398 -117.36)"/><path class="ao" d="M542.628,381.914q.906.394,1.819.755a.543.543,0,0,0-.066-.033h0l-.345-.141-.5-.206-.5-.21-.344-.144h0a.488.488,0,0,0-.056-.02m-.371.024a.544.544,0,0,0-.284.289l-23.891,54.082h0a1,1,0,0,0,.111.966q1.085.476,2.177.929l0-.008,0,.008q1.09.454,2.184.883a1,1,0,0,0,.773-.605h0l21.348-55.136a.546.546,0,0,0,.04-.206.538.538,0,0,0-.036-.195l-.309-.122a.374.374,0,0,1,.175.317.364.364,0,0,1-.029.143h0l-21.347,55.135a.83.83,0,0,1-.767.512.855.855,0,0,1-.289-.052l-.079-.03h0l-.632-.245c-.383-.149-.818-.32-1.029-.407s-.634-.272-1-.434l-.612-.27h0l-.077-.033a.832.832,0,0,1-.442-1.083L542.13,382.3v0a.373.373,0,0,1,.44-.218l-.313-.137" transform="translate(-162.794 -120.024)"/><path d="M542.562,381.883a.543.543,0,0,0-.219.046l.314.137a.483.483,0,0,1,.048.016h0s.634.267.847.355.85.348.85.348a.4.4,0,0,1,.056.029l.309.121a.544.544,0,0,0-.234-.275q-.912-.362-1.818-.755a.534.534,0,0,0-.153-.022m-24.284,55.383a1,1,0,0,0,.346.3v0l.075.034s1.269.562,1.7.739l.033-.079.029-.071q-1.091-.454-2.177-.93m2.177.93-.029.071-.033.079c.427.176,1.745.684,1.745.685l.08.031,0-.008a.993.993,0,0,0,.267.036h0a1.014,1.014,0,0,0,.151-.012q-1.1-.43-2.185-.883" transform="translate(-162.879 -120.014)"/><path class="ao" d="M564.181,387.2q.967.209,1.934.386a.639.639,0,0,0-.073-.02l-.366-.071-.536-.1-.533-.108-.365-.075a.458.458,0,0,0-.061-.008m-.357.1a.54.54,0,0,0-.223.34l-12.881,57.7h0a.961.961,0,0,0-.019.2,1,1,0,0,0,.316.73q1.157.255,2.316.487l0-.01,0,.01q1.157.231,2.314.44a1,1,0,0,0,.641-.745h0L566.469,388.2a.542.542,0,0,0-.073-.394l-.325-.058a.375.375,0,0,1,.239.348.452.452,0,0,1-.007.073h0L556.12,446.411a.828.828,0,0,1-.814.665.857.857,0,0,1-.132-.01l-.088-.014h0l-.662-.116c-.4-.072-.865-.155-1.089-.2s-.675-.143-1.07-.23l-.641-.143v0l-.094-.02a.832.832,0,0,1-.66-.813.8.8,0,0,1,.015-.161l12.882-57.7h0a.374.374,0,0,1,.366-.3h.021l-.333-.073" transform="translate(-173.069 -121.684)"/><path d="M564.28,387.193a.543.543,0,0,0-.311.1l.333.073a.329.329,0,0,1,.052.006l.9.183.9.176h0a.289.289,0,0,1,.062.018l.326.058a.545.545,0,0,0-.281-.224q-.967-.177-1.934-.386l-.046,0M551.162,446.26a1,1,0,0,0,.387.226v0l.092.021s1.354.3,1.807.394l.016-.084.015-.075q-1.158-.231-2.316-.487m2.316.487-.015.075-.016.084c.453.09,1.845.331,1.845.331l.089.016v-.008l.07,0a1,1,0,0,0,.341-.06q-1.157-.208-2.314-.44" transform="translate(-173.214 -121.683)"/><path class="ao" d="M588.566,389.163l-.918,0-.917,0a.449.449,0,0,0-.061,0c.348.005.7.009,1.043.009q.466,0,.93-.008a.555.555,0,0,0-.076,0m-2.229.167a.543.543,0,0,0-.152.375l-1.377,59.108h0a1,1,0,0,0,.472.85q1.25.026,2.494.026,1.116,0,2.228-.021a1,1,0,0,0,.484-.856h0l-1.377-59.107a.543.543,0,0,0-.149-.374l-.332.006a.374.374,0,0,1,.31.368h0l1.376,59.109a.83.83,0,0,1-.8.827l-.082,0v0l-.68.015c-.411.009-.879.018-1.107.018s-.689-.009-1.094-.017l-.668-.015v0H585.8a.832.832,0,0,1-.822-.829l1.377-59.108v0a.375.375,0,0,1,.322-.37l-.341-.007" transform="translate(-183.788 -122.302)"/><path d="M586.885,389.167a.543.543,0,0,0-.331.165l.341.007a.325.325,0,0,1,.051,0c.016,0,.691,0,.918,0s.918,0,.918,0a.387.387,0,0,1,.064.005l.331-.005a.542.542,0,0,0-.319-.165q-.464.007-.93.007-.52,0-1.044-.009m-1.387,60.5a1,1,0,0,0,.434.147v0l.084,0s1.387.034,1.849.034,1.873-.034,1.874-.034l.083,0v-.008a1.013,1.013,0,0,0,.4-.137q-1.112.02-2.228.02-1.245,0-2.494-.025" transform="translate(-184.005 -122.304)"/><path class="ao" d="M606.5,387.2a.478.478,0,0,0-.076.01l-.366.075-.534.108-.535.1-.366.071h0a.6.6,0,0,0-.06.016q.974-.177,1.937-.383m.345.1-.324.071h.009a.374.374,0,0,1,.366.3h0l12.882,57.7a.869.869,0,0,1,.016.161.833.833,0,0,1-.639.806l-.082.02h0l-.661.147c-.4.088-.858.188-1.082.232s-.678.126-1.076.2l-.656.115v0l-.086.016a.83.83,0,0,1-.968-.654l-10.181-58.24h0a.337.337,0,0,1-.008-.073.373.373,0,0,1,.249-.352l-.334.06a.542.542,0,0,0-.086.292.565.565,0,0,0,.01.106l10.181,58.239v0a1,1,0,0,0,.63.742q2.333-.415,4.632-.916a1,1,0,0,0,.327-.738,1.015,1.015,0,0,0-.02-.2h0l-12.882-57.7a.54.54,0,0,0-.218-.336" transform="translate(-189.878 -121.684)"/><path d="M606.57,387.193h-.029q-.963.207-1.937.383a.543.543,0,0,0-.292.226l.334-.06a.451.451,0,0,1,.052-.014h0l.9-.176.9-.183a.4.4,0,0,1,.064-.007l.324-.071a.544.544,0,0,0-.315-.1h0m13.108,59.075q-2.3.5-4.632.916a1,1,0,0,0,.353.064.955.955,0,0,0,.1,0v0l.085-.014s1.367-.237,1.82-.327,1.831-.4,1.831-.4l.084-.019v-.008a1,1,0,0,0,.361-.211" transform="translate(-189.917 -121.683)"/><path class="ao" d="M623.046,381.907a.582.582,0,0,0-.073.025l-.344.145-.5.21-.5.207-.346.141h0a.472.472,0,0,0-.056.027q.922-.363,1.825-.754m.357.031-.3.132a.4.4,0,0,1,.08-.008.374.374,0,0,1,.346.23h0l23.891,54.082a.82.82,0,0,1,.062.315.832.832,0,0,1-.485.755l-.076.035h0l-.621.274c-.375.165-.8.352-1.015.44h0c-.211.088-.64.256-1.017.4l-.628.243h0l-.073.029a.85.85,0,0,1-.309.06.833.833,0,0,1-.769-.514l-21.347-55.134h0a.374.374,0,0,1,.155-.464l-.317.124a.537.537,0,0,0-.037.2.546.546,0,0,0,.041.208l21.347,55.133h0a1,1,0,0,0,.762.605q2.208-.862,4.365-1.8a1,1,0,0,0,.119-.976h0l-23.892-54.083a.545.545,0,0,0-.28-.287" transform="translate(-195.143 -120.022)"/><path d="M623.2,381.883h0a.531.531,0,0,0-.134.017q-.9.391-1.825.754a.541.541,0,0,0-.243.278l.317-.123a.383.383,0,0,1,.047-.024h0c.007,0,.638-.26.85-.348l.848-.355a.4.4,0,0,1,.062-.019l.3-.132a.548.548,0,0,0-.222-.047m24.275,55.393q-2.157.94-4.365,1.8a1.011,1.011,0,0,0,.164.014h0a1.022,1.022,0,0,0,.3-.045v0l.073-.028s1.295-.5,1.721-.676l-.033-.079.033.079c.427-.177,1.718-.749,1.718-.75l.078-.034,0-.007a1.008,1.008,0,0,0,.314-.278" transform="translate(-195.16 -120.014)"/><path class="ao" d="M638.626,373.456l-.272.189a.374.374,0,0,1,.461.134h0L672.8,422.162a.82.82,0,0,1,.139.457.833.833,0,0,1-.344.675l-.071.052h0l-.112.079c-.343.241-1.065.747-1.349.937-.189.127-.578.376-.919.594l-.444.283-.125.079h0l-.064.042a.832.832,0,0,1-1.145-.233l-31.694-49.911h0a.373.373,0,0,1,.061-.485l-.287.183a.552.552,0,0,0-.008.1.541.541,0,0,0,.091.3l31.694,49.911h0a1,1,0,0,0,.833.445h.032q2-1.275,3.929-2.619a1,1,0,0,0-.073-.98h0l-33.984-48.382a.546.546,0,0,0-.33-.227m-.357.04a.546.546,0,0,0-.067.038h0l-.309.209-.452.3-.454.3-.311.206h0c-.018.012-.034.025-.051.038q.834-.537,1.644-1.1" transform="translate(-200.012 -117.366)"/><path d="M638.508,373.436h0a.545.545,0,0,0-.235.053q-.811.56-1.644,1.1a.544.544,0,0,0-.183.32l.286-.183a.418.418,0,0,1,.042-.033c.016-.01.577-.381.765-.507s.761-.513.761-.513a.382.382,0,0,1,.057-.032l.272-.189a.551.551,0,0,0-.121-.014m-1.734,1.254h0Zm36.244,48.349q-1.932,1.342-3.929,2.619a1,1,0,0,0,.448-.122l0,0,.065-.041s1.172-.742,1.556-1,1.539-1.07,1.539-1.07l.074-.052-.005-.006a1,1,0,0,0,.25-.331" transform="translate(-200.016 -117.36)"/><path class="ao" d="M651.931,362.178l-.23.238a.368.368,0,0,1,.214-.067.372.372,0,0,1,.264.109l42.77,40.824a.829.829,0,0,1,.019,1.15l-.058.062h0l-.1.1c-.289.3-.9.94-1.141,1.182l.007.006q.835-.833,1.651-1.679a1,1,0,0,0-.263-.947h0L652.3,362.337a.542.542,0,0,0-.37-.159m-.342.108a.58.58,0,0,0-.058.051h0l-.262.265-.384.386-.386.384-.265.263c-.015.015-.029.031-.042.047q.713-.688,1.4-1.4m-1.271,1.51-.245.235a.543.543,0,0,0,.158.372l40.823,42.77h0a1,1,0,0,0,.708.293.983.983,0,0,0,.228-.026q.856-.821,1.691-1.655l-.007-.006c-.16.16-.494.481-.785.761l-.381.364-.095.091h0l-.067.066a.832.832,0,0,1-1.169-.007l-40.821-42.768h0a.375.375,0,0,1-.035-.488" transform="translate(-204.299 -113.822)"/><path d="M651.915,362.178h0a.54.54,0,0,0-.326.109q-.686.707-1.4,1.4a.545.545,0,0,0-.118.338v.012l.245-.236a.306.306,0,0,1,.035-.04c.011-.012.491-.486.651-.647s.647-.652.647-.652h0a.406.406,0,0,1,.049-.043l.23-.238h-.014m-1.563,1.579Zm44.98,40.35q-.816.846-1.651,1.68l.053.053-.053-.053q-.836.834-1.691,1.655a1,1,0,0,0,.4-.2l0,0,.068-.064s1-.957,1.331-1.284,1.3-1.349,1.3-1.349l.06-.063-.005-.005a1,1,0,0,0,.182-.376" transform="translate(-204.298 -113.822)"/><path class="ao" d="M662.9,348.539h0a.587.587,0,0,0-.092.008l-.179.279a.373.373,0,0,1,.478-.053l49.913,31.694a.831.831,0,0,1,.243,1.125l-.043.07h0l-.077.122c-.225.354-.7,1.1-.888,1.382-.127.189-.39.569-.622.9l-.3.431-.077.109h0l-.052.076a.832.832,0,0,1-1.148.222l-48.381-33.983h0a.373.373,0,0,1-.166-.311.378.378,0,0,1,.037-.162c-.064.094-.13.187-.195.28a.542.542,0,0,0,.229.335l48.38,33.983h0a1,1,0,0,0,.555.169,1.015,1.015,0,0,0,.414-.089q1.357-1.944,2.628-3.924c0-.015,0-.03,0-.045a1,1,0,0,0-.444-.832h0L663.2,348.631a.544.544,0,0,0-.3-.092m-.407.182a.585.585,0,0,0-.047.06l-.206.311-.3.454-.3.452-.208.309h0a.579.579,0,0,0-.032.053q.564-.813,1.1-1.64" transform="translate(-207.843 -109.535)"/><path d="M662.8,348.55a.543.543,0,0,0-.315.174q-.534.826-1.1,1.64a.537.537,0,0,0-.06.249.523.523,0,0,0,.013.118l.195-.28a.342.342,0,0,1,.026-.045h0s.385-.57.514-.761.507-.765.507-.766h0a.371.371,0,0,1,.04-.05l.18-.279m50.747,32.655q-1.271,1.98-2.628,3.923a1,1,0,0,0,.359-.274l0,0,.053-.074s.8-1.135,1.055-1.519,1.012-1.577,1.012-1.577l.045-.071-.006,0a1,1,0,0,0,.107-.407" transform="translate(-207.837 -109.539)"/><path class="ao" d="M671.035,333.045a.551.551,0,0,0-.195.036c-.04.1-.08.206-.121.309a.375.375,0,0,1,.459-.146l55.137,21.348a.83.83,0,0,1,.457,1.055l-.029.082h0c-.047.121-.14.363-.245.63-.149.383-.32.819-.407,1.029s-.272.634-.434,1l-.272.616h0l-.031.072a.829.829,0,0,1-1.081.442l-54.082-23.892h0a.372.372,0,0,1-.219-.44l-.137.313a.547.547,0,0,0,.289.283L724.2,359.679h0a.989.989,0,0,0,.382.077h0a1,1,0,0,0,.584-.188q.951-2.17,1.812-4.361a1,1,0,0,0-.605-.774h0l-55.133-21.347a.547.547,0,0,0-.208-.042m-.47.27a.547.547,0,0,0-.033.067h0s-.064.16-.141.346-.163.4-.207.5l-.21.5-.145.344h0a.553.553,0,0,0-.02.057q.394-.906.756-1.82" transform="translate(-210.501 -104.666)"/><path d="M670.831,333.1a.538.538,0,0,0-.275.232q-.362.914-.756,1.821a.519.519,0,0,0-.022.151.548.548,0,0,0,.046.219q.069-.156.137-.314a.362.362,0,0,1,.016-.047s.267-.634.354-.847.346-.844.348-.85h0a.384.384,0,0,1,.029-.056c.04-.1.082-.206.121-.309m56.143,22.126q-.86,2.191-1.812,4.361a1,1,0,0,0,.3-.35h0l.031-.071s.562-1.269.739-1.7.685-1.745.685-1.745l.031-.082-.008,0a.985.985,0,0,0,.036-.266,1.02,1.02,0,0,0-.012-.151" transform="translate(-210.491 -104.683)"/><path class="ao" d="M675.992,316.291a.544.544,0,0,0-.289.084c-.019.109-.038.218-.059.327a.376.376,0,0,1,.348-.24.392.392,0,0,1,.074.008h0l58.242,10.181a.831.831,0,0,1,.665.815.845.845,0,0,1-.01.131l-.014.084h0c-.022.127-.067.383-.117.667-.071.4-.154.865-.2,1.089s-.143.675-.23,1.069c-.06.271-.114.514-.143.641h0l-.02.094a.832.832,0,0,1-.813.66.821.821,0,0,1-.163-.016L675.563,319h0a.374.374,0,0,1-.3-.366v-.023c-.024.111-.049.223-.073.334a.547.547,0,0,0,.338.222l57.7,12.881h0a1.012,1.012,0,0,0,.2.019,1,1,0,0,0,.73-.317q.51-2.315.926-4.631a1,1,0,0,0-.745-.641h0L676.1,316.3a.54.54,0,0,0-.1-.01m-.514.367a.49.49,0,0,0-.019.071h0s-.033.169-.071.366l-.1.534c-.023.112-.068.337-.108.534l-.074.365h0a.55.55,0,0,0-.009.059q.21-.966.386-1.931" transform="translate(-212.161 -99.401)"/><path d="M675.7,316.414a.542.542,0,0,0-.224.283q-.177.966-.386,1.931c0,.016,0,.032,0,.048a.543.543,0,0,0,.1.311c.025-.111.049-.223.073-.334a.426.426,0,0,1,.007-.05h0s.138-.674.183-.9.176-.9.176-.9a.364.364,0,0,1,.017-.06c.02-.109.04-.218.059-.327m59.381,10.748q-.417,2.316-.926,4.631a1.008,1.008,0,0,0,.226-.387h0l.021-.092s.3-1.354.394-1.807.331-1.845.331-1.845l.015-.084h-.008q0-.037,0-.074a1,1,0,0,0-.06-.341" transform="translate(-212.16 -99.44)"/><path class="ao" d="M736.711,296.914h0L677.6,298.291a.541.541,0,0,0-.373.149c0,.112,0,.223.006.335a.373.373,0,0,1,.369-.313h0l59.109-1.377a.831.831,0,0,1,.827.8l0,.087h0c0,.13.01.389.015.676.009.41.018.878.018,1.106h.009v-.126q0-1.117-.021-2.23a1,1,0,0,0-.855-.483m-59.647,1.849a.5.5,0,0,0,0,.072s0,.689,0,.918,0,.916,0,.918a.535.535,0,0,0,0,.058q.009-.519.009-1.038,0-.465-.007-.928m60.523.99h-.009c0,.228-.009.69-.017,1.094-.006.285-.012.541-.015.668h0v.084a.833.833,0,0,1-.832.822L677.6,301.044h0a.374.374,0,0,1-.371-.325c0,.115,0,.23-.006.344a.544.544,0,0,0,.375.152l59.109,1.377h0a1,1,0,0,0,.85-.472q.024-1.185.025-2.367" transform="translate(-212.78 -93.311)"/><path d="M737.567,297.618q.021,1.113.021,2.23v.126h.162c0-.461-.035-1.873-.035-1.874l0-.088H737.7a1,1,0,0,0-.138-.394m-60.337,1.043a.542.542,0,0,0-.165.323q.007.463.007.928,0,.518-.009,1.038a.544.544,0,0,0,.165.335c0-.115,0-.23.007-.344a.387.387,0,0,1,0-.049s0-.687,0-.918,0-.918,0-.918a.429.429,0,0,1,0-.06c0-.112,0-.223-.005-.335m60.519,1.313h-.162q0,1.182-.025,2.367a1,1,0,0,0,.147-.435h0l0-.084s.034-1.387.034-1.849" transform="translate(-212.781 -93.533)"/><path class="ao" d="M733.427,262.806a1.01,1.01,0,0,0-.2.019h0l-57.7,12.881a.545.545,0,0,0-.338.219c.024.109.048.218.071.327v-.013a.375.375,0,0,1,.3-.366h0l57.7-12.882a.86.86,0,0,1,.16-.015.832.832,0,0,1,.806.638l.019.082h0c.028.126.085.38.147.662.088.4.188.859.232,1.082l.009,0q-.229-1.158-.48-2.307a1,1,0,0,0-.736-.325m1.216,2.633-.009,0c.045.223.126.678.2,1.076.051.286.1.542.117.664h0l.014.076a.83.83,0,0,1-.654.968l-58.24,10.181h0a.383.383,0,0,1-.073.007.374.374,0,0,1-.354-.254c.021.113.04.226.06.339a.546.546,0,0,0,.294.086.56.56,0,0,0,.106-.01l58.24-10.181h0a1,1,0,0,0,.741-.628q-.208-1.167-.437-2.327m-59.553,10.837a.534.534,0,0,0,.01.071l.074.365c.04.2.086.422.108.534s.067.337.1.535.071.366.071.366h0a.434.434,0,0,0,.014.053q-.176-.969-.381-1.925" transform="translate(-212.161 -82.592)"/><path d="M734.163,263.28q.251,1.149.48,2.307l.075-.015.084-.016c-.091-.453-.4-1.831-.4-1.832l-.019-.083h-.008a.992.992,0,0,0-.213-.363m.639,2.276-.084.016-.075.015q.229,1.158.437,2.327a.991.991,0,0,0,.065-.355.925.925,0,0,0-.006-.107h0l-.013-.075s-.237-1.367-.327-1.82m-59.613,10.519a.542.542,0,0,0-.1.314c0,.012,0,.023,0,.036q.206.957.381,1.925a.541.541,0,0,0,.226.3q-.03-.17-.06-.339a.456.456,0,0,1-.012-.046c0-.01-.131-.677-.176-.9s-.182-.9-.182-.9a.369.369,0,0,1-.007-.06c-.023-.11-.047-.218-.071-.327" transform="translate(-212.16 -82.741)"/><path class="ao" d="M724.587,230.111a1,1,0,0,0-.382.076h0l-54.08,23.891a.545.545,0,0,0-.289.282c.045.1.09.205.134.308a.373.373,0,0,1,.221-.432h0l54.081-23.892a.818.818,0,0,1,.316-.063.833.833,0,0,1,.756.485l.035.076h0c.052.118.158.356.274.621.165.376.352.805.44,1.016l.008,0q-.452-1.092-.921-2.17a1.006,1.006,0,0,0-.592-.194m1.513,2.364-.008,0c.087.21.256.64.4,1.017l.239.617h0l.034.084a.832.832,0,0,1-.453,1.078l-55.135,21.347h0a.372.372,0,0,1-.468-.16q.064.16.126.322a.538.538,0,0,0,.2.038h0a.552.552,0,0,0,.207-.041l55.134-21.347h0a1,1,0,0,0,.6-.76q-.431-1.1-.883-2.2m-56.294,22.248a.572.572,0,0,0,.023.066h0l.145.344.21.5c.044.106.131.318.207.5l.141.345h0c.008.016.015.033.023.049q-.361-.914-.748-1.811" transform="translate(-210.5 -72.317)"/><path d="M725.171,230.394q.47,1.079.921,2.17l.071-.029.079-.033c-.176-.427-.749-1.718-.749-1.718l-.035-.078-.007,0a1,1,0,0,0-.28-.315m1.07,2.108-.079.033-.071.029q.452,1.092.883,2.2a1.009,1.009,0,0,0-.028-.453h0l-.032-.084s-.5-1.295-.676-1.721m-56.415,21.947a.544.544,0,0,0-.047.221.535.535,0,0,0,.019.142q.388.9.748,1.811a.544.544,0,0,0,.281.25q-.063-.161-.126-.322a.292.292,0,0,1-.02-.042h0s-.26-.637-.348-.85-.354-.847-.354-.848h0a.424.424,0,0,1-.018-.056c-.044-.1-.089-.206-.134-.308" transform="translate(-210.492 -72.406)"/><path class="ao" d="M710.516,200.087h0a.988.988,0,0,0-.553.168h0l-48.382,33.983a.545.545,0,0,0-.227.332l.192.276a.368.368,0,0,1-.034-.156.373.373,0,0,1,.166-.311L710.059,200.4a.817.817,0,0,1,.457-.139.835.835,0,0,1,.675.344l.051.07h0l.081.115c.241.343.747,1.065.937,1.349l.007,0q-.655-.983-1.327-1.949a1,1,0,0,0-.424-.094m1.751,2.043-.007,0c.126.19.376.579.593.92l.283.444.079.125h0l.042.064a.833.833,0,0,1-.234,1.146l-49.909,31.692h0a.374.374,0,0,1-.492-.067q.095.145.187.292a.577.577,0,0,0,.1.009.538.538,0,0,0,.3-.091l49.911-31.694h0a1,1,0,0,0,.445-.834v-.029q-.639-1-1.295-1.983m-50.871,32.8a.652.652,0,0,0,.034.06h0l.208.309.3.452.3.454.205.311h0a.462.462,0,0,0,.031.042q-.531-.825-1.086-1.628" transform="translate(-207.843 -62.881)"/><path d="M710.934,200.223q.672.967,1.327,1.949l.064-.043.071-.047c-.256-.384-1.07-1.539-1.07-1.539l-.05-.071-.006,0a1.016,1.016,0,0,0-.335-.254m1.462,1.859-.071.047-.064.043q.655.983,1.295,1.984a1,1,0,0,0-.123-.451h0l-.041-.065s-.742-1.172-1-1.556m-51.05,32.532a.5.5,0,0,0-.013.12.536.536,0,0,0,.057.243q.554.8,1.086,1.628a.544.544,0,0,0,.325.191q-.093-.147-.187-.293a.342.342,0,0,1-.027-.036h0s-.379-.575-.507-.766-.514-.761-.514-.762h0a.417.417,0,0,1-.028-.051l-.192-.276" transform="translate(-207.837 -62.924)"/><path class="ao" d="M691.761,173.886h0a1,1,0,0,0-.706.293l-40.823,42.77a.538.538,0,0,0-.158.37l.243.235a.376.376,0,0,1-.073-.221.372.372,0,0,1,.11-.264h0l40.823-42.77a.821.821,0,0,1,.584-.241.833.833,0,0,1,.566.222l.06.056h0l.1.1c.3.289.94.9,1.181,1.14l.006-.006q-.834-.836-1.682-1.653a1,1,0,0,0-.238-.029m1.92,1.681-.006.006c.161.161.482.494.762.785l.364.381.1.1h0l.059.06a.833.833,0,0,1-.007,1.17l-42.768,40.821h0a.373.373,0,0,1-.264.11.377.377,0,0,1-.232-.082l.242.252a.541.541,0,0,0,.374-.158L695.068,178.2h0a1,1,0,0,0,.268-.933q-.822-.856-1.657-1.693m-43.492,42.1a.5.5,0,0,0,.045.05h0l.265.262.387.384.384.386.263.265a.435.435,0,0,0,.037.034q-.681-.7-1.38-1.382" transform="translate(-204.299 -54.647)"/><path d="M692,173.927q.848.819,1.681,1.654l.055-.055.06-.06c-.326-.327-1.349-1.3-1.349-1.3l-.061-.057,0,.005a1.018,1.018,0,0,0-.381-.186m1.8,1.539-.06.06-.055.055q.835.835,1.657,1.692a1,1,0,0,0-.2-.413l0,0-.058-.061s-.957-1-1.283-1.331m-43.722,41.866v.013a.547.547,0,0,0,.115.336q.7.677,1.38,1.381a.539.539,0,0,0,.348.126h.01l-.242-.252a.247.247,0,0,1-.032-.029c-.01-.01-.486-.491-.647-.651s-.64-.634-.651-.646a.369.369,0,0,1-.037-.044l-.243-.235" transform="translate(-204.299 -54.66)"/><path class="ao" d="M669.052,152.516h0a1,1,0,0,0-.832.444h0l-31.694,49.912a.541.541,0,0,0-.082.394l.285.183a.374.374,0,0,1-.122-.277.365.365,0,0,1,.063-.206l31.694-49.913a.832.832,0,0,1,1.125-.243l.073.045h0l.119.075c.354.225,1.1.7,1.382.888l0-.007q-.981-.657-1.971-1.293h-.043m2.014,1.294,0,.007c.189.127.568.39.9.622l.431.3.119.084h0l.067.045a.831.831,0,0,1,.223,1.147L638.817,204.4h0a.373.373,0,0,1-.482.124l.287.2a.545.545,0,0,0,.336-.228l33.983-48.382h0a1,1,0,0,0,.081-.967q-.972-.679-1.956-1.338m-34.442,49.776a.5.5,0,0,0,.053.04h0l.311.205.454.3.452.3.309.208h0a.449.449,0,0,0,.041.025q-.8-.558-1.62-1.085" transform="translate(-200.013 -47.931)"/><path d="M669.1,152.518q.991.637,1.972,1.293l.043-.064.047-.071c-.384-.257-1.577-1.013-1.578-1.013l-.074-.046,0,.007a1,1,0,0,0-.407-.106m2.063,1.158-.047.071-.043.064q.982.657,1.956,1.337a1.016,1.016,0,0,0-.284-.369l0,0-.065-.045s-1.135-.8-1.518-1.055m-34.714,49.591a.542.542,0,0,0,.181.32q.817.528,1.621,1.085a.544.544,0,0,0,.26.067.594.594,0,0,0,.116-.012l-.287-.2a.4.4,0,0,1-.036-.021h0l-.762-.514c-.191-.128-.765-.507-.765-.507-.016-.011-.03-.023-.044-.034-.095-.062-.19-.123-.285-.184" transform="translate(-200.016 -47.932)"/><path class="ao" d="M643.1,136.816a1,1,0,0,0-.771.605h0l-21.347,55.134a.539.539,0,0,0,0,.4l.316.125a.372.372,0,0,1-.154-.464h0l21.347-55.135a.83.83,0,0,1,1.056-.459l.08.029h0l.631.245c.383.149.818.32,1.029.407l0-.008q-1.091-.454-2.187-.884m2.187.884,0,.008c.211.087.634.272,1,.434l.615.271v0l.074.032a.832.832,0,0,1,.442,1.083l-23.891,54.079v0a.373.373,0,0,1-.346.23.385.385,0,0,1-.1-.014l.322.141a.546.546,0,0,0,.286-.291l23.891-54.08h0a1,1,0,0,0-.109-.963q-1.087-.477-2.179-.931M621.22,193.24a.555.555,0,0,0,.058.027h0l.345.141.5.207.5.21.344.145h0l.044.016q-.895-.389-1.8-.747" transform="translate(-195.143 -42.997)"/><path d="M643.272,136.8a.96.96,0,0,0-.154.012q1.1.43,2.187.884l.029-.072.033-.079c-.427-.177-1.745-.685-1.745-.685l-.082-.032,0,.008a1.014,1.014,0,0,0-.266-.036m2.095.745-.033.079-.029.072q1.092.454,2.179.93a.994.994,0,0,0-.35-.306v0l-.073-.032s-1.269-.562-1.7-.739m-24.372,55.412a.545.545,0,0,0,.242.279q.9.357,1.8.746a.537.537,0,0,0,.163.025.546.546,0,0,0,.217-.045l-.322-.141c-.013,0-.025-.008-.038-.013h0l-.847-.355-.85-.348a.409.409,0,0,1-.049-.024l-.316-.125" transform="translate(-195.16 -42.992)"/><path class="ao" d="M615.017,127.427a1,1,0,0,0-.637.743h0L604.2,186.413a.536.536,0,0,0-.01.1.544.544,0,0,0,.085.291l.335.06a.374.374,0,0,1-.25-.352.384.384,0,0,1,.008-.073h0L614.547,128.2a.83.83,0,0,1,.815-.665.865.865,0,0,1,.132.01l.088.014h0l.663.117c.4.071.865.154,1.089.2v-.008q-1.159-.232-2.318-.44m2.318.44v.008c.223.044.675.143,1.069.23l.655.145v0l.08.017a.829.829,0,0,1,.644.976l-12.881,57.7h0a.373.373,0,0,1-.366.3H606.5l.344.075a.543.543,0,0,0,.224-.341l12.881-57.7h0a1.015,1.015,0,0,0,.019-.2,1,1,0,0,0-.314-.728q-1.159-.255-2.319-.487m-12.768,59.168a.54.54,0,0,0,.06.016h0l.366.071.534.1.534.108.365.075h0l.045.007q-.953-.206-1.9-.381" transform="translate(-189.878 -40.047)"/><path d="M615.472,127.33v.008l-.069,0a1,1,0,0,0-.345.061q1.159.209,2.318.44l.015-.076.016-.084c-.453-.091-1.845-.332-1.845-.332Zm1.934.347-.016.084-.015.076q1.159.231,2.319.488a.992.992,0,0,0-.4-.232v0l-.079-.018s-1.354-.3-1.807-.394m-13.093,59.1a.541.541,0,0,0,.293.226q.953.175,1.9.381c.021,0,.042,0,.062,0a.545.545,0,0,0,.31-.1l-.345-.075-.038-.005s-.674-.138-.9-.182-.9-.176-.9-.176h0a.315.315,0,0,1-.051-.014l-.335-.06" transform="translate(-189.917 -40.016)"/><g class="ap" transform="translate(395.471 63.506)"><g class="aq"><path d="M586.917,100.627c-.393-.008-.84.062-.84.447a.319.319,0,0,0,.34.344.494.494,0,0,0,.48-.332.4.4,0,0,0,.02-.115Zm.053,1.013-.029-.25h-.012a.737.737,0,0,1-.606.3.566.566,0,0,1-.607-.57c0-.479.426-.742,1.192-.738v-.041a.408.408,0,0,0-.451-.459.984.984,0,0,0-.516.147l-.082-.238a1.234,1.234,0,0,1,.652-.176c.606,0,.754.414.754.812v.742a2.775,2.775,0,0,0,.033.475Z" transform="translate(-579.544 -94.811)"/></g></g><g class="ap" transform="translate(489.935 100.935)"><g class="ar"><path d="M724.952,154.192l-.5.586h-.258l.361-.586Zm.078,2.767a1.328,1.328,0,0,1-.57.115.942.942,0,0,1-.988-1.012,1.008,1.008,0,0,1,1.066-1.053,1.206,1.206,0,0,1,.5.1l-.082.278a.839.839,0,0,0-.418-.094.748.748,0,0,0-.012,1.492,1.021,1.021,0,0,0,.442-.1Z" transform="translate(-717.301 -149.393)"/></g></g><g class="ap" transform="translate(505.837 121.398)"><g class="as"><path d="M748.158,185.769a.64.64,0,0,0-.016-.152.531.531,0,0,0-.521-.418c-.373,0-.594.328-.594.767,0,.4.2.733.586.733a.542.542,0,0,0,.529-.43.628.628,0,0,0,.016-.156Zm.361-1.734v2.4c0,.176,0,.377.016.512h-.324l-.016-.344h-.008a.734.734,0,0,1-.676.39.9.9,0,0,1-.849-1.009.949.949,0,0,1,.889-1.066.665.665,0,0,1,.6.3h.008v-1.184Z" transform="translate(-740.491 -179.235)"/></g></g><path d="M765.674,219.881a.513.513,0,0,0-.5-.586.6.6,0,0,0-.553.586Zm-1.057.259a.635.635,0,0,0,.68.688,1.311,1.311,0,0,0,.549-.1l.062.258a1.6,1.6,0,0,1-.66.123.922.922,0,0,1-.976-1,.963.963,0,0,1,.931-1.07.84.84,0,0,1,.819.935,1.369,1.369,0,0,1-.012.168Z" transform="translate(-240.188 -68.837)"/><g class="ap" transform="translate(526.754 170.012)"><g class="at"><path d="M778.568,255.773a.513.513,0,0,0-.5-.586.6.6,0,0,0-.553.586Zm.078,1.927a.566.566,0,0,1-.332.1c-.221,0-.369-.119-.369-.324a.657.657,0,0,1,.3-.475v0a.957.957,0,0,1-.11,0,.921.921,0,0,1-.968-1,.963.963,0,0,1,.931-1.07.841.841,0,0,1,.819.935,1.236,1.236,0,0,1-.012.168H777.51a.635.635,0,0,0,.68.688,1.311,1.311,0,0,0,.549-.1l.062.259c-.062.028-.152.057-.189.069-.16.07-.385.271-.385.439a.16.16,0,0,0,.168.172.54.54,0,0,0,.193-.041Z" transform="translate(-770.994 -250.129)"/></g></g><g class="ap" transform="translate(530.962 195.202)"><g class="au"><path d="M783.58,294.618v-1.71H783.3v-.274h.278v-.095a.935.935,0,0,1,.23-.693.69.69,0,0,1,.483-.184.827.827,0,0,1,.307.058l-.049.278a.541.541,0,0,0-.23-.045c-.307,0-.385.27-.385.573v.107h.479v.274h-.479v1.71Z" transform="translate(-777.13 -286.863)"/></g></g><g class="ap" transform="translate(526.618 222.244)"><g class="av"><path d="M778.448,331.926a.513.513,0,0,0-.021-.164.519.519,0,0,0-.5-.381c-.344,0-.59.291-.59.75,0,.389.2.713.586.713a.526.526,0,0,0,.5-.369.626.626,0,0,0,.029-.193Zm.373-.783c-.008.143-.016.3-.016.545v1.152a1.141,1.141,0,0,1-.283.906,1.052,1.052,0,0,1-.721.238,1.284,1.284,0,0,1-.66-.164l.091-.275a1.115,1.115,0,0,0,.582.156c.369,0,.639-.193.639-.693v-.221h-.008a.707.707,0,0,1-.631.332.886.886,0,0,1-.845-.967.953.953,0,0,1,.893-1.054.66.66,0,0,1,.619.345h.008l.016-.3Z" transform="translate(-770.796 -326.298)"/></g></g><g class="ap" transform="translate(517.945 245.975)"><g class="aw"><path d="M764.32,365.7h.361v1.238h.008a.666.666,0,0,1,.258-.254.738.738,0,0,1,.369-.1c.266,0,.693.164.693.849v1.18h-.361v-1.14c0-.32-.119-.59-.459-.59a.519.519,0,0,0-.483.361.436.436,0,0,0-.025.172v1.2h-.361Z" transform="translate(-758.148 -360.905)"/></g></g><path d="M747.837,400.414h.361V402.4h-.361Zm.4-.558a.224.224,0,0,1-.447,0,.22.22,0,0,1,.226-.226.214.214,0,0,1,.221.226" transform="translate(-235.009 -125.592)"/><g class="ap" transform="translate(490.015 289.756)"><g class="ax"><path d="M724.52,429.777a.212.212,0,0,1-.226.221.216.216,0,0,1-.222-.221.221.221,0,0,1,.23-.226.214.214,0,0,1,.217.226m-.931,3.115a.587.587,0,0,0,.394-.152c.1-.115.135-.271.135-.746v-1.66h.361v1.8a1.086,1.086,0,0,1-.238.816.914.914,0,0,1-.614.225Z" transform="translate(-717.417 -424.751)"/></g></g><g class="ap" transform="translate(468.866 304.816)"><g class="ay"><path d="M693.1,453.35h.008c.049-.07.119-.156.176-.226l.582-.684h.434l-.766.815.873,1.169h-.439l-.684-.95-.184.2v.746h-.357v-2.91h.357Z" transform="translate(-686.575 -446.714)"/></g></g><g class="ap" transform="translate(447.868 320.152)"><g class="az"><rect width="0.361" height="2.91" transform="translate(6.172 4.8)"/></g></g><g class="ap" transform="translate(422.543 329.325)"><g class="ba"><path d="M625.473,490.165v-1.181l-.279.238v-.282l.279-.242v-1.443h.361v1.168l.291-.25v.287l-.291.25v1.455Z" transform="translate(-619.022 -482.455)"/></g></g><g class="ap" transform="translate(394.906 333.064)"><g class="bb"><path d="M584.907,493.288c0-.205,0-.373-.016-.537h.315l.016.32h.012a.685.685,0,0,1,.623-.365.587.587,0,0,1,.562.4h.008a.814.814,0,0,1,.221-.259.678.678,0,0,1,.438-.139c.263,0,.652.172.652.861v1.168h-.352v-1.123c0-.381-.14-.611-.431-.611a.468.468,0,0,0-.427.328.593.593,0,0,0-.029.18v1.225h-.352v-1.188c0-.316-.139-.546-.414-.546a.494.494,0,0,0-.447.361.5.5,0,0,0-.029.177v1.2h-.352Z" transform="translate(-578.719 -487.907)"/></g></g><path d="M546.824,489.122c0-.205,0-.373-.016-.537h.32l.021.328h.008a.73.73,0,0,1,.656-.373c.274,0,.7.164.7.845v1.184h-.361v-1.144c0-.32-.119-.586-.459-.586a.512.512,0,0,0-.483.368.522.522,0,0,0-.025.169v1.193h-.361Z" transform="translate(-171.846 -153.534)"/><g class="ap" transform="translate(342.804 322.442)"><g class="bc"><path d="M510.329,477.217l-.5.586h-.258l.361-.586Zm-1.4,1.394c0-.205,0-.373-.016-.537h.32l.021.328h.008a.731.731,0,0,1,.656-.373c.274,0,.7.164.7.845v1.184h-.361v-1.144c0-.32-.119-.586-.459-.586a.513.513,0,0,0-.483.368.52.52,0,0,0-.025.169v1.192h-.361Z" transform="translate(-502.739 -472.417)"/></g></g><g class="ap" transform="translate(319.978 308.924)"><g class="bd"><path d="M475.99,458.545c0,.434.25.763.6.763s.6-.324.6-.771c0-.336-.168-.763-.595-.763s-.61.394-.61.771m1.574-.021a.969.969,0,0,1-.988,1.053.943.943,0,0,1-.95-1.02.968.968,0,0,1,.983-1.053.939.939,0,0,1,.955,1.02" transform="translate(-469.453 -452.704)"/></g></g><g class="ap" transform="translate(298.815 291.847)"><g class="be"><path d="M446.271,432.6l-.5.586h-.258l.36-.586Zm-1.143,1.853c0,.434.25.763.6.763s.6-.324.6-.771c0-.336-.168-.763-.595-.763s-.61.394-.61.771m1.574-.021a.969.969,0,0,1-.988,1.053.943.943,0,0,1-.95-1.02.968.968,0,0,1,.983-1.053.939.939,0,0,1,.955,1.02" transform="translate(-438.591 -427.801)"/></g></g><path d="M424.857,401.929a.8.8,0,0,0,.016.147.557.557,0,0,0,.541.422c.381,0,.6-.311.6-.767,0-.4-.209-.738-.59-.738a.626.626,0,0,0-.57.595Zm-.357-.529c0-.254-.008-.459-.016-.647h.324l.016.341h.008a.78.78,0,0,1,.706-.385.9.9,0,0,1,.84,1.008.939.939,0,0,1-.9,1.066.7.7,0,0,1-.611-.311h-.008v1.078H424.5Z" transform="translate(-133.403 -125.931)"/><path d="M407.8,367.655c0-.234,0-.435-.016-.619h.315l.012.389h.016a.6.6,0,0,1,.549-.434.393.393,0,0,1,.1.012v.34a.543.543,0,0,0-.123-.012.506.506,0,0,0-.483.463,1.02,1.02,0,0,0-.016.168v1.057H407.8Z" transform="translate(-128.155 -115.334)"/><path d="M394.6,332.768a.941.941,0,0,0,.475.143c.263,0,.385-.131.385-.295s-.1-.266-.369-.365c-.357-.127-.525-.324-.525-.562a.612.612,0,0,1,.684-.582.99.99,0,0,1,.488.123l-.091.262a.77.77,0,0,0-.406-.115c-.213,0-.332.123-.332.27,0,.164.119.238.377.336.344.131.521.3.521.6,0,.348-.27.595-.742.595a1.139,1.139,0,0,1-.557-.135Z" transform="translate(-123.981 -104.057)"/><g class="ap" transform="translate(262.721 195.316)"><g class="bf"><path d="M393.364,291.831l-.5.586h-.258l.361-.586Zm-1.148,2.471a.941.941,0,0,0,.475.143c.263,0,.385-.131.385-.295s-.1-.267-.369-.365c-.357-.128-.525-.324-.525-.562a.612.612,0,0,1,.684-.582,1,1,0,0,1,.488.123l-.091.263a.77.77,0,0,0-.406-.115c-.213,0-.332.123-.332.27,0,.164.119.238.377.336.344.132.52.3.52.6,0,.348-.27.595-.742.595a1.131,1.131,0,0,1-.557-.136Z" transform="translate(-385.954 -287.03)"/></g></g><path d="M398.51,254.8v.57h.516v.275h-.516v1.07c0,.245.07.385.27.385a.8.8,0,0,0,.209-.024l.016.27a.879.879,0,0,1-.32.049.5.5,0,0,1-.389-.152.738.738,0,0,1-.139-.516V255.65h-.307v-.275h.307V254.9Z" transform="translate(-125.032 -80.078)"/><path d="M408.82,220.546c0,.205,0,.385.016.541h-.32l-.021-.324h-.008a.748.748,0,0,1-.656.369c-.311,0-.684-.172-.684-.869V219.1h.361v1.1c0,.377.115.631.443.631a.508.508,0,0,0,.508-.512V219.1h.361Z" transform="translate(-127.955 -68.858)"/><path d="M424.049,185.37l.263,1.008c.057.221.11.427.147.632h.012c.045-.2.11-.414.176-.627l.324-1.013h.3l.308.992c.073.237.131.446.176.647h.012a5.935,5.935,0,0,1,.152-.644l.282-1h.357l-.639,1.984h-.328l-.3-.947a6.7,6.7,0,0,1-.176-.651h-.008a5.8,5.8,0,0,1-.18.656l-.32.943h-.328l-.6-1.984Z" transform="translate(-133.15 -58.256)"/><path d="M448.349,155.442l.435,1.173c.045.131.094.287.127.405h.008c.037-.119.078-.27.127-.413l.394-1.164h.381l-.541,1.414a3.029,3.029,0,0,1-.68,1.243.976.976,0,0,1-.443.233l-.09-.3a.963.963,0,0,0,.315-.176,1.1,1.1,0,0,0,.3-.4.263.263,0,0,0,.029-.086.315.315,0,0,0-.025-.095l-.734-1.828Z" transform="translate(-140.779 -48.851)"/><g class="ap" transform="translate(320.144 83.377)"><g class="bg"><path d="M475.866,130.365l.9-1.168c.086-.106.168-.2.259-.307v-.008h-1.074v-.291h1.512l0,.225-.885,1.152c-.082.111-.164.209-.254.312v.008h1.16v.287h-1.611Z" transform="translate(-469.694 -123.789)"/></g></g><g class="ap" transform="translate(344.145 71.267)"><g class="bh"><path d="M512.256,110.927l-.5.586H511.5l.361-.586Zm-1.389,2.632.9-1.168c.086-.106.168-.2.258-.307v-.008h-1.074v-.291h1.513l0,.225-.885,1.152c-.082.111-.164.209-.254.312v.008h1.16v.287h-1.611Z" transform="translate(-504.695 -106.128)"/></g></g><g class="ap" transform="translate(369.578 65.021)"><g class="bi"><path d="M548.563,102.033a.208.208,0,0,1,.209-.213.211.211,0,0,1,0,.422.207.207,0,0,1-.209-.209m-.607,2.336.9-1.168c.086-.106.168-.2.259-.307v-.008h-1.074v-.291h1.512l0,.225-.885,1.152c-.082.111-.164.209-.254.312v.008h1.16v.287h-1.611Z" transform="translate(-541.784 -97.02)"/></g></g><g class="ap" transform="translate(468.765 86.563)"><g class="bj"><path d="M694.158,135.186a1.327,1.327,0,0,1-.57.115.942.942,0,0,1-.988-1.012,1.008,1.008,0,0,1,1.066-1.053,1.205,1.205,0,0,1,.5.1l-.082.279a.83.83,0,0,0-.418-.095.748.748,0,0,0-.012,1.492,1.02,1.02,0,0,0,.442-.1Z" transform="translate(-686.428 -128.435)"/></g></g><g class="ap" transform="translate(445.885 73.441)"><g class="bk"><path d="M659.608,116.214a.682.682,0,0,0,.016.132.557.557,0,0,0,.541.422c.377,0,.6-.307.6-.762,0-.4-.205-.738-.59-.738a.574.574,0,0,0-.549.442.713.713,0,0,0-.021.147Zm-.373.8c.008-.135.016-.336.016-.512v-2.4h.357v1.246h.008a.738.738,0,0,1,.676-.365.891.891,0,0,1,.837,1.012.943.943,0,0,1-.889,1.062.708.708,0,0,1-.664-.373h-.012l-.016.328Z" transform="translate(-653.063 -109.299)"/></g></g><g class="ap" transform="translate(421.405 65.751)"><g class="bl"><path d="M624.736,103.9c-.394-.008-.84.062-.84.447a.319.319,0,0,0,.34.344.494.494,0,0,0,.48-.332.4.4,0,0,0,.02-.115Zm-1.057-.84a1.233,1.233,0,0,1,.651-.176c.607,0,.754.414.754.812v.742a2.661,2.661,0,0,0,.033.475h-.1a.764.764,0,0,0-.16.394.183.183,0,0,0,.2.205.428.428,0,0,0,.189-.041l.057.189a.6.6,0,0,1-.34.1.333.333,0,0,1-.365-.348.992.992,0,0,1,.2-.508l-.029-.238h-.012a.739.739,0,0,1-.606.3.566.566,0,0,1-.607-.57c0-.48.426-.742,1.192-.738v-.041a.408.408,0,0,0-.45-.459.984.984,0,0,0-.516.147Z" transform="translate(-617.363 -98.084)"/></g></g><path d="M578.032,185.284l.008.085q2.671-.24,5.4-.241t5.508.25l.052,0a.569.569,0,0,0,.566-.512l5.789-58.774c0-.035,0-.07,0-.1a1.053,1.053,0,0,0-.956-1.048q-5.553-.5-11.028-.5-5.444,0-10.789.481a1.052,1.052,0,0,0-.957,1.048c0,.034,0,.069,0,.1l5.79,58.783a.568.568,0,0,0,.566.512l.052,0-.008-.085-.008-.085h-.037a.4.4,0,0,1-.4-.358l-5.79-58.784c0-.029,0-.059,0-.088a.881.881,0,0,1,.8-.878q5.333-.477,10.774-.48,5.464,0,11.013.5a.882.882,0,0,1,.8.878c0,.029,0,.058,0,.088l-5.789,58.774a.4.4,0,0,1-.4.358h-.037q-2.781-.253-5.524-.25t-5.411.241Z" transform="translate(-179.645 -39.108)"/><path d="M555.781,187.823l.024.082a60.674,60.674,0,0,1,10.7-2.12.568.568,0,0,0,.51-.564.5.5,0,0,0,0-.056l-5.788-58.774a1.054,1.054,0,0,0-1.046-.952,1.017,1.017,0,0,0-.112.006,121.71,121.71,0,0,0-21.4,4.238,1.053,1.053,0,0,0-.754,1.01,1.035,1.035,0,0,0,.046.307L555.1,187.525a.568.568,0,0,0,.544.4.6.6,0,0,0,.162-.023l-.024-.082-.024-.082a.387.387,0,0,1-.114.016.4.4,0,0,1-.38-.281l-17.147-56.525a.883.883,0,0,1,.593-1.1,121.567,121.567,0,0,1,21.371-4.232.87.87,0,0,1,.094,0,.884.884,0,0,1,.876.8l5.788,58.774,0,.04a.4.4,0,0,1-.357.394,60.819,60.819,0,0,0-10.726,2.125Z" transform="translate(-169.048 -39.422)"/><path d="M534.614,194.467l.04.075a60.776,60.776,0,0,1,10.077-4.165.569.569,0,0,0,.377-.707l-17.144-56.515a1.053,1.053,0,0,0-1.32-.7,121.652,121.652,0,0,0-21.025,8.787l-.075.04,28.344,53.027a.568.568,0,0,0,.766.235l-.04-.075-.04-.075a.4.4,0,0,1-.186.046.4.4,0,0,1-.35-.21l-28.3-52.953-.075.04.04.075a121.451,121.451,0,0,1,21-8.775.881.881,0,0,1,1.105.588l17.143,56.515a.394.394,0,0,1,.017.115.4.4,0,0,1-.281.38,60.869,60.869,0,0,0-10.106,4.177Z" transform="translate(-158.877 -41.611)"/><path d="M515.853,205.19l.053.067a60.711,60.711,0,0,1,9.072-6.051.572.572,0,0,0,.3-.5.564.564,0,0,0-.067-.267l-27.84-52.085a1.057,1.057,0,0,0-.931-.558,1.042,1.042,0,0,0-.5.128,121.755,121.755,0,0,0-18.151,12.106,1.053,1.053,0,0,0-.15,1.487l37.472,45.66a.568.568,0,0,0,.8.081l-.053-.067-.054-.067a.4.4,0,0,1-.557-.056l-37.472-45.66a.881.881,0,0,1,.125-1.246,121.5,121.5,0,0,1,18.125-12.089.869.869,0,0,1,.418-.107.887.887,0,0,1,.781.468l27.839,52.085a.39.39,0,0,1,.047.186.4.4,0,0,1-.209.35,60.9,60.9,0,0,0-9.1,6.068Z" transform="translate(-150.032 -45.819)"/><path d="M499.71,219.58l.066.055a60.668,60.668,0,0,1,7.716-7.7.57.57,0,0,0,.206-.439.564.564,0,0,0-.128-.359L470.1,165.48a1.054,1.054,0,0,0-1.488-.143,121.669,121.669,0,0,0-15.44,15.414,1.053,1.053,0,0,0,.143,1.488l45.661,37.472a.565.565,0,0,0,.359.129.572.572,0,0,0,.438-.205l-.066-.055-.066-.055a.4.4,0,0,1-.557.053l-45.661-37.472a.882.882,0,0,1-.12-1.247,121.553,121.553,0,0,1,15.419-15.392.882.882,0,0,1,1.246.121l37.466,45.652a.392.392,0,0,1,.09.251.4.4,0,0,1-.144.307,60.929,60.929,0,0,0-7.738,7.726Z" transform="translate(-142.343 -51.884)"/><path d="M486.978,237.082l.075.041a60.682,60.682,0,0,1,6.065-9.062.569.569,0,0,0-.08-.8L447.386,189.8a1.055,1.055,0,0,0-1.487.15,121.7,121.7,0,0,0-12.136,18.129,1.04,1.04,0,0,0-.128.5,1.056,1.056,0,0,0,.559.931l52.093,27.845a.568.568,0,0,0,.767-.23l-.075-.041-.075-.041a.4.4,0,0,1-.35.209.391.391,0,0,1-.187-.047l-52.094-27.845a.887.887,0,0,1-.468-.78.874.874,0,0,1,.108-.419,121.485,121.485,0,0,1,12.119-18.1.883.883,0,0,1,1.246-.125L492.93,227.4a.394.394,0,0,1,.145.307.4.4,0,0,1-.089.252,60.913,60.913,0,0,0-6.082,9.087Z" transform="translate(-136.278 -59.572)"/><path d="M478.147,257.024l.082.025a60.688,60.688,0,0,1,4.181-10.071.579.579,0,0,0,.065-.266.565.565,0,0,0-.3-.5l-52.085-27.84a1.054,1.054,0,0,0-1.429.437,121.65,121.65,0,0,0-8.366,20.149,1.012,1.012,0,0,0-.048.313,1.054,1.054,0,0,0,.749,1.007l56.525,17.147a.576.576,0,0,0,.165.025.569.569,0,0,0,.542-.4l-.082-.025-.082-.025a.4.4,0,0,1-.379.28.4.4,0,0,1-.116-.017l-56.525-17.147a.886.886,0,0,1-.627-.844.869.869,0,0,1,.04-.262,121.567,121.567,0,0,1,8.354-20.121.883.883,0,0,1,1.2-.365l52.085,27.84a.4.4,0,0,1,.163.536,60.892,60.892,0,0,0-4.193,10.1Z" transform="translate(-132.071 -68.589)"/><path d="M473.553,278.639l.085.009a60.694,60.694,0,0,1,2.135-10.692.562.562,0,0,0,.024-.163.568.568,0,0,0-.4-.544l-56.515-17.145a1.076,1.076,0,0,0-.307-.045,1.053,1.053,0,0,0-1.01.753,121.674,121.674,0,0,0-4.274,21.394,1.037,1.037,0,0,0-.006.112,1.055,1.055,0,0,0,.952,1.046l58.784,5.79.056,0a.568.568,0,0,0,.564-.51l-.085-.009-.085-.008a.4.4,0,0,1-.394.357l-.04,0L414.25,273.2a.883.883,0,0,1-.8-.875.9.9,0,0,1,.005-.095,121.5,121.5,0,0,1,4.268-21.364.883.883,0,0,1,1.1-.592l56.515,17.143a.4.4,0,0,1,.282.381.392.392,0,0,1-.017.114,60.923,60.923,0,0,0-2.142,10.723Z" transform="translate(-129.882 -78.587)"/><path d="M473.158,301.1l.085-.008q-.24-2.671-.241-5.4t.249-5.508a.439.439,0,0,0,0-.052.568.568,0,0,0-.512-.566l-58.774-5.789c-.035,0-.07,0-.1,0a1.053,1.053,0,0,0-1.048.956q-.5,5.553-.5,11.028,0,5.444.481,10.789a1.052,1.052,0,0,0,1.048.957c.034,0,.069,0,.1,0l58.783-5.79a.568.568,0,0,0,.512-.566q0-.026,0-.051l-.085.008-.085.008v.036a.4.4,0,0,1-.358.4l-58.784,5.79c-.029,0-.059,0-.088,0a.882.882,0,0,1-.878-.8q-.477-5.333-.48-10.773,0-5.463.5-11.013a.882.882,0,0,1,.878-.8c.029,0,.058,0,.088,0l58.774,5.789a.4.4,0,0,1,.358.4l0,.037q-.252,2.781-.25,5.523t.242,5.412Z" transform="translate(-129.578 -89.182)"/><path d="M475.7,320.887l.082-.024a60.615,60.615,0,0,1-2.119-10.7.569.569,0,0,0-.565-.51.518.518,0,0,0-.056,0l-58.773,5.788a1.054,1.054,0,0,0-.952,1.046,1.033,1.033,0,0,0,.006.112,121.721,121.721,0,0,0,4.238,21.4,1.052,1.052,0,0,0,1.317.708l.027-.008,56.5-17.138a.569.569,0,0,0,.4-.544.6.6,0,0,0-.023-.162l-.082.024-.082.024a.407.407,0,0,1,.016.114.4.4,0,0,1-.281.38l-56.525,17.147a.882.882,0,0,1-1.1-.593,121.56,121.56,0,0,1-4.232-21.371.874.874,0,0,1,0-.094.884.884,0,0,1,.8-.876l58.774-5.789h.039a.4.4,0,0,1,.395.357,60.82,60.82,0,0,0,2.125,10.726Z" transform="translate(-129.892 -97.316)"/><path d="M482.341,337.249l.075-.04a60.777,60.777,0,0,1-4.165-10.077.568.568,0,0,0-.542-.4.553.553,0,0,0-.165.024L421.029,343.9a1.053,1.053,0,0,0-.7,1.32,121.624,121.624,0,0,0,8.332,20.163,1.053,1.053,0,0,0,1.429.438l52.093-27.845a.567.567,0,0,0,.235-.766l-.075.04-.075.04a.41.41,0,0,1,.046.185.4.4,0,0,1-.211.35l-52.093,27.845a.882.882,0,0,1-1.2-.366,121.491,121.491,0,0,1-8.32-20.135.859.859,0,0,1-.04-.261.884.884,0,0,1,.628-.844l56.515-17.144a.394.394,0,0,1,.115-.017.4.4,0,0,1,.38.281,60.863,60.863,0,0,0,4.177,10.106Z" transform="translate(-132.081 -102.682)"/><path d="M493.064,352.21l.067-.053a60.679,60.679,0,0,1-6.051-9.072.572.572,0,0,0-.5-.3.564.564,0,0,0-.267.067l-52.085,27.84a1.056,1.056,0,0,0-.558.931,1.044,1.044,0,0,0,.128.5A121.747,121.747,0,0,0,445.9,390.276a1.053,1.053,0,0,0,1.487.15l45.66-37.472a.568.568,0,0,0,.081-.8l-.067.053-.067.053a.4.4,0,0,1,.089.251.4.4,0,0,1-.145.307l-45.66,37.472a.881.881,0,0,1-1.246-.125,121.456,121.456,0,0,1-12.089-18.125.869.869,0,0,1-.107-.418.886.886,0,0,1,.468-.781l52.085-27.839a.39.39,0,0,1,.187-.047.4.4,0,0,1,.35.209,60.9,60.9,0,0,0,6.068,9.1Z" transform="translate(-136.289 -107.728)"/><path d="M507.453,365.2l.055-.066a60.71,60.71,0,0,1-7.7-7.716.57.57,0,0,0-.439-.206.562.562,0,0,0-.359.128L453.353,394.8a1.054,1.054,0,0,0-.143,1.488,121.709,121.709,0,0,0,15.414,15.44,1.053,1.053,0,0,0,1.488-.143l37.472-45.661a.568.568,0,0,0-.076-.8l-.055.066-.055.066a.4.4,0,0,1,.054.557L469.98,411.48a.89.89,0,0,1-.685.324.871.871,0,0,1-.562-.2,121.516,121.516,0,0,1-15.393-15.419.874.874,0,0,1-.2-.562.883.883,0,0,1,.324-.684l45.652-37.466a.391.391,0,0,1,.251-.09.4.4,0,0,1,.308.144,60.926,60.926,0,0,0,7.725,7.738Z" transform="translate(-142.354 -112.26)"/><path d="M524.954,375.708l.041-.075a60.687,60.687,0,0,1-9.062-6.065.573.573,0,0,0-.359-.128.567.567,0,0,0-.439.208L477.67,415.3a1.053,1.053,0,0,0,.149,1.487,121.64,121.64,0,0,0,18.13,12.136,1.04,1.04,0,0,0,.5.128,1.054,1.054,0,0,0,.931-.558L525.226,376.4a.569.569,0,0,0-.23-.767l-.041.075-.041.075a.4.4,0,0,1,.208.35.39.39,0,0,1-.047.186L497.23,428.413a.885.885,0,0,1-.78.468.874.874,0,0,1-.419-.107,121.546,121.546,0,0,1-18.1-12.119.884.884,0,0,1-.125-1.246l37.466-45.652a.4.4,0,0,1,.558-.056,60.915,60.915,0,0,0,9.087,6.082Z" transform="translate(-150.042 -116.104)"/><path d="M544.9,383.341l.025-.082a60.685,60.685,0,0,1-10.071-4.181.577.577,0,0,0-.265-.065.566.566,0,0,0-.5.3L506.245,431.4a1.053,1.053,0,0,0,.438,1.429,121.622,121.622,0,0,0,20.149,8.366,1.031,1.031,0,0,0,.313.048,1.054,1.054,0,0,0,1.007-.749L545.3,383.967a.576.576,0,0,0,.025-.165.569.569,0,0,0-.4-.542l-.025.082-.025.082a.4.4,0,0,1,.263.5l-17.147,56.524a.885.885,0,0,1-.844.628.871.871,0,0,1-.262-.04,121.585,121.585,0,0,1-20.121-8.354.882.882,0,0,1-.366-1.2l27.84-52.085a.4.4,0,0,1,.536-.163,60.913,60.913,0,0,0,10.1,4.193Z" transform="translate(-159.058 -119.112)"/><path d="M566.513,387.8l.009-.085a60.715,60.715,0,0,1-10.693-2.135.559.559,0,0,0-.162-.024.568.568,0,0,0-.544.4l-17.144,56.515a1.055,1.055,0,0,0,.708,1.317,121.7,121.7,0,0,0,21.394,4.274,1.038,1.038,0,0,0,.112.006,1.054,1.054,0,0,0,1.046-.952l5.79-58.783c0-.019,0-.038,0-.056a.569.569,0,0,0-.509-.564l-.009.085-.009.085a.4.4,0,0,1,.357.394l0,.04-5.79,58.783a.884.884,0,0,1-.876.8.9.9,0,0,1-.095-.005,121.489,121.489,0,0,1-21.364-4.268.883.883,0,0,1-.592-1.1l17.143-56.515a.4.4,0,0,1,.381-.282.385.385,0,0,1,.114.017,60.935,60.935,0,0,0,10.723,2.142Z" transform="translate(-169.057 -121.169)"/><path d="M588.972,388.92l-.008-.085q-2.671.24-5.4.241t-5.508-.249a.457.457,0,0,0-.053,0,.569.569,0,0,0-.566.512l-5.788,58.774c0,.035-.005.07-.005.1a1.054,1.054,0,0,0,.956,1.049q5.552.5,11.027.5,5.444,0,10.789-.481a1.052,1.052,0,0,0,.957-1.048c0-.034,0-.069,0-.1l-5.79-58.783a.568.568,0,0,0-.566-.512l-.052,0,.008.085.008.085h.036a.4.4,0,0,1,.4.358l5.79,58.783c0,.03,0,.059,0,.088a.882.882,0,0,1-.8.878q-5.333.477-10.774.48-5.463,0-11.012-.5a.883.883,0,0,1-.8-.879.763.763,0,0,1,0-.088l5.788-58.774a.4.4,0,0,1,.4-.358l.037,0q2.781.252,5.524.25t5.411-.241Z" transform="translate(-179.652 -122.196)"/><path d="M608.76,385.672l-.024-.082a60.618,60.618,0,0,1-10.7,2.119.569.569,0,0,0-.51.564.539.539,0,0,0,0,.057l5.788,58.774a1.055,1.055,0,0,0,1.046.951c.036,0,.074,0,.111-.005a121.784,121.784,0,0,0,21.4-4.238,1.053,1.053,0,0,0,.754-1.01,1.037,1.037,0,0,0-.046-.307l-17.147-56.525a.567.567,0,0,0-.543-.4.55.55,0,0,0-.162.024l.024.082.024.082a.409.409,0,0,1,.114-.016.4.4,0,0,1,.38.282l17.147,56.525a.882.882,0,0,1-.592,1.1,121.58,121.58,0,0,1-21.371,4.232.862.862,0,0,1-.093,0,.884.884,0,0,1-.876-.8L597.7,388.312l0-.04a.4.4,0,0,1,.357-.394,60.816,60.816,0,0,0,10.726-2.125Z" transform="translate(-187.786 -121.172)"/><path d="M625.122,379.158l-.04-.075a60.7,60.7,0,0,1-10.078,4.164.567.567,0,0,0-.376.708l17.144,56.515a1.055,1.055,0,0,0,1.008.75,1.043,1.043,0,0,0,.311-.047,121.624,121.624,0,0,0,20.163-8.332,1.054,1.054,0,0,0,.438-1.43l-27.845-52.093a.567.567,0,0,0-.766-.234l.04.075.04.075a.4.4,0,0,1,.185-.046.4.4,0,0,1,.35.21l27.845,52.094a.882.882,0,0,1-.366,1.2,121.547,121.547,0,0,1-20.135,8.32.881.881,0,0,1-1.105-.588l-17.143-56.515a.4.4,0,0,1,.264-.5,60.869,60.869,0,0,0,10.106-4.177Z" transform="translate(-193.152 -119.114)"/><path d="M640.083,369.632l-.053-.067a60.713,60.713,0,0,1-9.072,6.051.568.568,0,0,0-.231.768l27.84,52.085a1.057,1.057,0,0,0,.931.558,1.044,1.044,0,0,0,.5-.128,121.755,121.755,0,0,0,18.151-12.106,1.055,1.055,0,0,0,.15-1.487l-37.472-45.66a.568.568,0,0,0-.8-.081l.053.067.053.066a.4.4,0,0,1,.558.056l37.472,45.66a.888.888,0,0,1,.2.562.878.878,0,0,1-.327.684,121.493,121.493,0,0,1-18.125,12.089.869.869,0,0,1-.418.107.889.889,0,0,1-.781-.468L630.878,376.3a.391.391,0,0,1-.047-.187.4.4,0,0,1,.209-.35,60.9,60.9,0,0,0,9.1-6.068Z" transform="translate(-198.198 -116.104)"/><path d="M653.07,357.463l-.066-.055a60.716,60.716,0,0,1-7.716,7.7.565.565,0,0,0-.206.439.557.557,0,0,0,.128.359l37.466,45.652a1.058,1.058,0,0,0,.817.386,1.044,1.044,0,0,0,.671-.243,121.674,121.674,0,0,0,15.441-15.414,1.051,1.051,0,0,0-.144-1.488L653.8,357.332a.568.568,0,0,0-.8.076l.066.055.065.055a.4.4,0,0,1,.558-.054l45.66,37.472a.886.886,0,0,1,.324.685.867.867,0,0,1-.2.562,121.46,121.46,0,0,1-15.418,15.393.883.883,0,0,1-1.247-.121L645.344,365.8a.389.389,0,0,1-.091-.251.4.4,0,0,1,.145-.308,60.871,60.871,0,0,0,7.738-7.725Z" transform="translate(-202.73 -112.258)"/><path d="M663.582,343.116l-.075-.041a60.687,60.687,0,0,1-6.065,9.062.573.573,0,0,0-.128.359.567.567,0,0,0,.208.438L703.174,390.4a1.053,1.053,0,0,0,1.487-.15A121.706,121.706,0,0,0,716.8,372.121a1.039,1.039,0,0,0,.128-.5,1.055,1.055,0,0,0-.558-.931l-52.093-27.845a.568.568,0,0,0-.767.23l.075.041.075.041a.4.4,0,0,1,.537-.162l52.094,27.845a.885.885,0,0,1,.468.78.874.874,0,0,1-.107.419,121.538,121.538,0,0,1-12.119,18.1.884.884,0,0,1-1.246.125L657.63,352.8a.4.4,0,0,1-.145-.307.4.4,0,0,1,.09-.252,60.878,60.878,0,0,0,6.082-9.087Z" transform="translate(-206.574 -107.725)"/><path d="M671.215,327.143l-.082-.025a60.682,60.682,0,0,1-4.181,10.071.577.577,0,0,0-.065.265.565.565,0,0,0,.3.5l52.085,27.84a1.053,1.053,0,0,0,1.429-.437,121.64,121.64,0,0,0,8.366-20.149,1.03,1.03,0,0,0,.048-.313,1.054,1.054,0,0,0-.749-1.007l-56.525-17.147a.575.575,0,0,0-.165-.025.569.569,0,0,0-.542.4l.082.025.082.025a.4.4,0,0,1,.5-.263l56.524,17.147a.884.884,0,0,1,.628.844.87.87,0,0,1-.04.262,121.587,121.587,0,0,1-8.354,20.121.883.883,0,0,1-1.2.366L667.267,337.8a.4.4,0,0,1-.163-.536,60.915,60.915,0,0,0,4.193-10.1Z" transform="translate(-209.583 -102.677)"/><path d="M675.675,310.157l-.085-.009a60.774,60.774,0,0,1-2.135,10.693.56.56,0,0,0-.024.163.568.568,0,0,0,.4.544l56.515,17.144a1.055,1.055,0,0,0,1.317-.708,121.686,121.686,0,0,0,4.274-21.394,1.03,1.03,0,0,0,.006-.112,1.054,1.054,0,0,0-.952-1.046l-58.783-5.79-.056,0a.569.569,0,0,0-.564.509l.085.009.085.009a.4.4,0,0,1,.394-.357l.04,0,58.784,5.79a.883.883,0,0,1,.8.876.9.9,0,0,1-.005.095,121.5,121.5,0,0,1-4.268,21.364.883.883,0,0,1-1.1.592l-56.515-17.143A.4.4,0,0,1,673.6,321a.41.41,0,0,1,.016-.114,60.938,60.938,0,0,0,2.142-10.723Z" transform="translate(-211.639 -97.31)"/><path d="M676.794,290.158l-.085.008q.24,2.671.241,5.4t-.25,5.508c0,.017,0,.034,0,.051a.569.569,0,0,0,.512.567l58.774,5.788c.035,0,.07.005.1.005a1.053,1.053,0,0,0,1.049-.956q.5-5.553.5-11.029,0-5.444-.481-10.788a1.053,1.053,0,0,0-1.048-.957c-.034,0-.069,0-.1.005l-58.784,5.79a.567.567,0,0,0-.512.566.442.442,0,0,0,0,.053l.085-.008.085-.008v-.036a.4.4,0,0,1,.358-.4l58.784-5.79c.029,0,.059,0,.088,0a.881.881,0,0,1,.878.8q.477,5.332.48,10.773,0,5.464-.5,11.013a.883.883,0,0,1-.878.8c-.029,0-.058,0-.088,0l-58.774-5.789a.4.4,0,0,1-.358-.4v-.036q.252-2.781.25-5.524t-.241-5.411Z" transform="translate(-212.666 -89.175)"/><path d="M673.545,267.908l-.082.024a60.735,60.735,0,0,1,2.119,10.7.568.568,0,0,0,.564.51.52.52,0,0,0,.056,0l58.774-5.788a1.055,1.055,0,0,0,.951-1.046c0-.036,0-.074-.005-.111a121.781,121.781,0,0,0-4.239-21.4,1.052,1.052,0,0,0-1.317-.708l-56.525,17.146a.568.568,0,0,0-.4.544.55.55,0,0,0,.024.162l.082-.024.082-.024a.441.441,0,0,1-.016-.114.4.4,0,0,1,.282-.38l56.524-17.147a.883.883,0,0,1,1.1.592,121.584,121.584,0,0,1,4.232,21.371.861.861,0,0,1,0,.093.884.884,0,0,1-.8.876l-58.774,5.789h-.039a.4.4,0,0,1-.4-.357,60.816,60.816,0,0,0-2.125-10.726Z" transform="translate(-211.642 -78.578)"/><path d="M667.031,246.912l-.075.04a60.765,60.765,0,0,1,4.165,10.077.569.569,0,0,0,.707.376l56.516-17.144a1.055,1.055,0,0,0,.749-1.008,1.043,1.043,0,0,0-.047-.311,121.63,121.63,0,0,0-8.332-20.163,1.053,1.053,0,0,0-1.429-.438L667.19,246.186a.568.568,0,0,0-.235.766l.075-.04.075-.04a.4.4,0,0,1-.046-.185.4.4,0,0,1,.21-.35l52.094-27.845a.882.882,0,0,1,1.2.366,121.548,121.548,0,0,1,8.32,20.135.881.881,0,0,1-.588,1.105l-56.515,17.143a.4.4,0,0,1-.5-.264,60.863,60.863,0,0,0-4.177-10.106Z" transform="translate(-209.584 -68.579)"/><path d="M657.506,227.98l-.067.053a60.706,60.706,0,0,1,6.051,9.071.569.569,0,0,0,.5.3.563.563,0,0,0,.267-.067l52.085-27.84a1.057,1.057,0,0,0,.558-.931,1.043,1.043,0,0,0-.128-.5,121.719,121.719,0,0,0-12.106-18.151,1.053,1.053,0,0,0-1.487-.15l-45.66,37.472a.568.568,0,0,0-.081.8l.067-.053.067-.053a.4.4,0,0,1,.056-.558l45.66-37.472a.882.882,0,0,1,.562-.2.873.873,0,0,1,.684.327,121.459,121.459,0,0,1,12.089,18.125.869.869,0,0,1,.107.418.885.885,0,0,1-.468.78l-52.085,27.84a.39.39,0,0,1-.186.047.4.4,0,0,1-.35-.209,60.92,60.92,0,0,0-6.068-9.1Z" transform="translate(-206.574 -59.562)"/><path d="M645.336,211.836l-.055.066a60.628,60.628,0,0,1,7.7,7.716.572.572,0,0,0,.439.206.565.565,0,0,0,.359-.129l45.652-37.466a1.054,1.054,0,0,0,.143-1.488A121.62,121.62,0,0,0,684.165,165.3a1.043,1.043,0,0,0-.671-.244,1.055,1.055,0,0,0-.817.387L645.2,211.1a.566.566,0,0,0-.129.359.572.572,0,0,0,.205.438l.055-.066.055-.066a.4.4,0,0,1-.054-.558l37.472-45.66a.885.885,0,0,1,.684-.324.874.874,0,0,1,.562.2,121.5,121.5,0,0,1,15.392,15.418.882.882,0,0,1-.121,1.246l-45.652,37.466a.4.4,0,0,1-.251.091.4.4,0,0,1-.307-.145,60.93,60.93,0,0,0-7.726-7.738Z" transform="translate(-202.728 -51.873)"/><path d="M630.989,199.1l-.041.075a60.687,60.687,0,0,1,9.062,6.065.569.569,0,0,0,.8-.08l37.466-45.652a1.055,1.055,0,0,0-.15-1.487,121.7,121.7,0,0,0-18.129-12.136,1.051,1.051,0,0,0-1.432.431l-27.845,52.093a.568.568,0,0,0,.23.767l.041-.075.041-.075a.4.4,0,0,1-.162-.537L658.713,146.4a.88.88,0,0,1,1.2-.361,121.484,121.484,0,0,1,18.1,12.119.883.883,0,0,1,.125,1.246l-37.466,45.652a.4.4,0,0,1-.559.056,60.858,60.858,0,0,0-9.087-6.082Z" transform="translate(-198.195 -45.808)"/><path d="M615.016,190.273l-.025.082a60.687,60.687,0,0,1,10.071,4.181.579.579,0,0,0,.266.065.565.565,0,0,0,.5-.3l27.84-52.085a1.054,1.054,0,0,0-.437-1.429,121.651,121.651,0,0,0-20.149-8.366,1.032,1.032,0,0,0-.313-.048,1.054,1.054,0,0,0-1.007.749l-17.147,56.525a.567.567,0,0,0,.376.708l.025-.082.025-.082a.4.4,0,0,1-.28-.379.381.381,0,0,1,.018-.116l17.146-56.524a.885.885,0,0,1,.844-.628.871.871,0,0,1,.262.04,121.565,121.565,0,0,1,20.121,8.354.883.883,0,0,1,.365,1.2L625.678,194.22a.4.4,0,0,1-.537.163,60.89,60.89,0,0,0-10.1-4.193Z" transform="translate(-193.147 -41.601)"/><path d="M598.03,185.68l-.009.085a60.652,60.652,0,0,1,10.693,2.135.581.581,0,0,0,.162.023.567.567,0,0,0,.544-.4l17.144-56.515a1.055,1.055,0,0,0-.708-1.317,121.693,121.693,0,0,0-21.394-4.274,1.049,1.049,0,0,0-1.158.945l-5.79,58.784c0,.019,0,.038,0,.056a.569.569,0,0,0,.509.564l.009-.085.009-.085a.4.4,0,0,1-.357-.394l0-.04,5.79-58.783a.883.883,0,0,1,.875-.8.9.9,0,0,1,.1,0,121.565,121.565,0,0,1,21.364,4.269.883.883,0,0,1,.592,1.1l-17.143,56.515a.4.4,0,0,1-.381.281.385.385,0,0,1-.114-.016,60.878,60.878,0,0,0-10.723-2.142Z" transform="translate(-187.78 -39.412)"/><path d="M589.514,124.59h0s-1.388-.034-1.847-.034-1.872.034-1.872.034v0a.916.916,0,0,0-.882.914l1.377,59.114a.459.459,0,0,0,.459.459l.917,0,.918,0a.459.459,0,0,0,.459-.459l1.377-59.114a.917.917,0,0,0-.907-.917" transform="translate(-183.821 -39.144)"/><path d="M472.566,252.351a.966.966,0,0,0,1.055-.848,60.91,60.91,0,0,1,2.225-10.706l-.01,0a60.814,60.814,0,0,1,4.55-10.957l-.009,0a60.72,60.72,0,0,1,6.6-9.859l-.008-.007a60.813,60.813,0,0,1,7.669-7.775.965.965,0,0,0,.119-1.349l-37.166-45.287a.969.969,0,0,0-1.367-.132,121.582,121.582,0,0,0-16.052,16.154l.016.013a121.592,121.592,0,0,0-13.2,19.72l.018.01a121.674,121.674,0,0,0-9.1,21.916l.02.006a121.654,121.654,0,0,0-4.546,22.3.968.968,0,0,0,.869,1.064Z" transform="translate(-129.913 -51.917)"/><path d="M486.247,342.839a.965.965,0,0,0,.147-1.346,60.882,60.882,0,0,1-6-9.144l-.009,0a60.774,60.774,0,0,1-4.531-10.965l-.01,0a60.765,60.765,0,0,1-2.2-10.7.966.966,0,0,0-1.056-.848l-58.3,5.742a.967.967,0,0,0-.869,1.064,121.509,121.509,0,0,0,4.513,22.321l.02-.006a121.6,121.6,0,0,0,9.064,21.93l.018-.01a121.689,121.689,0,0,0,12.554,18.985.969.969,0,0,0,1.367.138Z" transform="translate(-129.922 -97.374)"/><path d="M538.735,443.812a121.614,121.614,0,0,0,21.381,4.272.968.968,0,0,0,1.064-.87l5.744-58.313a.966.966,0,0,0-.848-1.055,60.771,60.771,0,0,1-9.8-1.957.966.966,0,0,0-1.188.651L538.085,442.6a.968.968,0,0,0,.65,1.21" transform="translate(-169.091 -121.262)"/><path d="M658.07,353.29l45.286,37.166a.969.969,0,0,0,1.367-.138A121.6,121.6,0,0,0,716.852,372.2a.968.968,0,0,0-.4-1.316L664.78,343.261a.965.965,0,0,0-1.3.38,60.785,60.785,0,0,1-5.557,8.3.966.966,0,0,0,.147,1.347" transform="translate(-206.7 -107.841)"/><path d="M672.375,257.215l56.062-17.006a.969.969,0,0,0,.645-1.213,121.648,121.648,0,0,0-8.327-20.151.968.968,0,0,0-1.314-.4l-51.677,27.622a.966.966,0,0,0-.407,1.291,60.767,60.767,0,0,1,3.815,9.233.967.967,0,0,0,1.2.626" transform="translate(-209.698 -68.614)"/><path d="M563.7,186.95a.459.459,0,0,0,.54.361s.675-.138.9-.182.9-.176.9-.176a.459.459,0,0,0,.361-.54L556.22,128.167a.917.917,0,0,0-1.068-.723h0s-1.368.237-1.818.327-1.83.4-1.83.4v0a.916.916,0,0,0-.686,1.069Z" transform="translate(-173.1 -40.047)"/><path d="M542.067,193.671a.459.459,0,0,0,.6.248s.634-.267.846-.355.85-.348.85-.348a.459.459,0,0,0,.248-.6l-21.349-55.141a.917.917,0,0,0-1.188-.5h0s-1.3.5-1.72.675-1.716.748-1.716.748v0a.916.916,0,0,0-.464,1.182Z" transform="translate(-162.824 -43.027)"/><path d="M522.216,204.484a.459.459,0,0,0,.636.127l.762-.514.765-.507a.459.459,0,0,0,.127-.636l-31.7-49.916a.918.918,0,0,0-1.264-.259h0s-1.173.743-1.555,1-1.537,1.069-1.537,1.069l0,0a.916.916,0,0,0-.226,1.25Z" transform="translate(-153.387 -47.967)"/><path d="M472.489,301.175a.459.459,0,0,0,.459-.459s0-.688,0-.918,0-.918,0-.918a.459.459,0,0,0-.459-.459l-59.113-1.377a.917.917,0,0,0-.917.907h0s-.034,1.389-.034,1.847.035,1.872.035,1.872h0a.917.917,0,0,0,.915.882Z" transform="translate(-129.612 -93.352)"/><path d="M506.859,363.747s-.49-.484-.651-.647-.647-.651-.647-.651a.459.459,0,0,0-.649,0l-42.773,40.826a.918.918,0,0,0-.008,1.29h0s.958,1.006,1.282,1.33,1.348,1.3,1.348,1.3l0,0a.917.917,0,0,0,1.27-.023L506.859,364.4a.46.46,0,0,0,0-.649" transform="translate(-145.152 -113.865)"/><path d="M524.378,374.672s-.575-.379-.765-.507l-.761-.513a.458.458,0,0,0-.636.126l-33.987,48.386a.917.917,0,0,0,.244,1.266h0s1.136.8,1.518,1.054,1.576,1.011,1.576,1.011v0a.916.916,0,0,0,1.241-.271l31.7-49.916a.46.46,0,0,0-.127-.637" transform="translate(-153.387 -117.403)"/><path d="M544.361,382.76s-.638-.26-.85-.348-.847-.355-.847-.355a.459.459,0,0,0-.6.249l-23.894,54.087a.918.918,0,0,0,.487,1.194h0s1.269.562,1.693.738,1.743.684,1.743.684v0a.917.917,0,0,0,1.165-.507l21.349-55.141a.459.459,0,0,0-.248-.6" transform="translate(-162.824 -120.058)"/><path d="M588.584,389.3l-.918,0-.917,0a.459.459,0,0,0-.459.459l-1.376,59.113a.917.917,0,0,0,.906.917h0s1.388.034,1.847.034,1.873-.034,1.873-.034v0a.916.916,0,0,0,.882-.914l-1.377-59.113a.459.459,0,0,0-.459-.459" transform="translate(-183.821 -122.346)"/><path d="M607,387.7a.459.459,0,0,0-.54-.361s-.675.138-.9.182-.9.176-.9.176a.459.459,0,0,0-.361.54l10.182,58.247a.917.917,0,0,0,1.068.723h0s1.368-.237,1.818-.327,1.83-.4,1.83-.4v0a.916.916,0,0,0,.686-1.069Z" transform="translate(-189.911 -121.727)"/><path d="M623.626,382.306a.459.459,0,0,0-.6-.248s-.634.267-.846.355-.85.348-.85.348a.459.459,0,0,0-.248.6l21.35,55.141a.917.917,0,0,0,1.188.5h0s1.3-.5,1.719-.675,1.717-.749,1.717-.749v0a.917.917,0,0,0,.465-1.182Z" transform="translate(-195.177 -120.058)"/><path d="M638.91,373.779a.459.459,0,0,0-.636-.127s-.571.385-.762.513-.765.507-.765.507a.458.458,0,0,0-.127.636l31.7,49.916a.918.918,0,0,0,1.264.259h0s1.173-.743,1.555-1,1.537-1.069,1.537-1.069l0,0a.916.916,0,0,0,.226-1.25Z" transform="translate(-200.046 -117.404)"/><path d="M695.038,403.276l-42.773-40.826a.46.46,0,0,0-.649,0s-.484.49-.647.652-.651.647-.651.647a.459.459,0,0,0,0,.649l40.826,42.773a.917.917,0,0,0,1.289.008h0s1.006-.957,1.33-1.282,1.3-1.348,1.3-1.348l0,0a.916.916,0,0,0-.023-1.27" transform="translate(-204.333 -113.865)"/><path d="M726.369,354.564l-55.141-21.35a.46.46,0,0,0-.6.248s-.26.638-.348.85-.354.846-.354.846a.46.46,0,0,0,.248.6l54.087,23.894a.919.919,0,0,0,1.194-.487h0s.563-1.269.739-1.693.684-1.743.684-1.743h0a.916.916,0,0,0-.507-1.164" transform="translate(-210.527 -104.708)"/><path d="M734.355,326.616l-58.247-10.182a.458.458,0,0,0-.54.36s-.131.676-.176.9-.182.9-.182.9a.459.459,0,0,0,.361.54l57.709,12.883a.917.917,0,0,0,1.076-.71h0s.3-1.355.394-1.8.331-1.843.331-1.843h0a.916.916,0,0,0-.725-1.043" transform="translate(-212.196 -99.443)"/><path d="M737.662,297.927h0a.917.917,0,0,0-.915-.882l-59.113,1.377a.459.459,0,0,0-.459.459s0,.688,0,.918,0,.918,0,.918a.458.458,0,0,0,.459.459l59.113,1.377a.918.918,0,0,0,.917-.907h0s.034-1.388.034-1.847-.035-1.872-.035-1.872" transform="translate(-212.815 -93.352)"/><path d="M675.211,276.373s.138.675.182.9.176.9.176.9a.459.459,0,0,0,.54.361l58.247-10.182a.917.917,0,0,0,.723-1.068h0s-.237-1.368-.327-1.818-.4-1.83-.4-1.83h0a.916.916,0,0,0-1.069-.686l-57.709,12.883a.459.459,0,0,0-.361.54" transform="translate(-212.196 -82.632)"/><path d="M661.521,234.985l.513.761.507.765a.459.459,0,0,0,.636.127l49.917-31.7a.918.918,0,0,0,.259-1.263h0s-.743-1.173-1-1.555-1.068-1.537-1.068-1.537h0a.916.916,0,0,0-1.25-.225l-48.385,33.987a.458.458,0,0,0-.127.636" transform="translate(-207.872 -62.919)"/><path d="M650.318,217.695s.49.484.651.647.647.651.647.651a.46.46,0,0,0,.649,0l42.773-40.826a.917.917,0,0,0,.008-1.289h0s-.958-1.006-1.282-1.33-1.348-1.3-1.348-1.3l0,0a.916.916,0,0,0-1.27.023l-40.826,42.773a.46.46,0,0,0,0,.649" transform="translate(-204.334 -54.685)"/><path d="M636.747,203.592s.575.379.765.507l.761.513a.458.458,0,0,0,.636-.126L672.9,156.1a.917.917,0,0,0-.244-1.266h0s-1.136-.8-1.518-1.054-1.576-1.011-1.576-1.011v0a.915.915,0,0,0-1.241.27l-31.7,49.916a.459.459,0,0,0,.127.636" transform="translate(-200.047 -47.968)"/><path d="M621.332,193.219s.638.26.85.348.847.355.847.355a.459.459,0,0,0,.6-.248l23.894-54.088a.917.917,0,0,0-.487-1.194h0s-1.269-.563-1.693-.739-1.743-.684-1.743-.684v0a.916.916,0,0,0-1.164.507l-21.35,55.14a.459.459,0,0,0,.248.6" transform="translate(-195.177 -43.028)"/><path d="M604.663,186.974l.9.176c.225.045.9.182.9.182a.458.458,0,0,0,.54-.36l12.883-57.71a.917.917,0,0,0-.71-1.076h0s-1.354-.3-1.8-.394-1.843-.331-1.843-.331v0a.916.916,0,0,0-1.043.725L604.3,186.434a.459.459,0,0,0,.361.54" transform="translate(-189.911 -40.054)"/></g></g></g></g></g></g></svg>